<mxfile host="app.diagrams.net" modified="2023-10-14T08:18:56.050Z" agent="Mozilla/5.0 (Windows NT 10.0; Win64; x64) AppleWebKit/537.36 (KHTML, like Gecko) Chrome/118.0.0.0 Safari/537.36" etag="IvGTlhXRJrxc47QeSZo7" version="22.0.4" type="device">
  <diagram name="Copia de Building&#39;s Post" id="dw2wXPZGj81q3_bSFqcU">
    <mxGraphModel dx="2074" dy="1118" grid="1" gridSize="10" guides="1" tooltips="1" connect="1" arrows="1" fold="1" page="1" pageScale="1" pageWidth="827" pageHeight="1169" math="0" shadow="0">
      <root>
        <mxCell id="jevpeknbrTmHfBJ1SfYR-0" />
        <mxCell id="jevpeknbrTmHfBJ1SfYR-1" parent="jevpeknbrTmHfBJ1SfYR-0" />
        <mxCell id="jevpeknbrTmHfBJ1SfYR-2" value="" style="rounded=0;whiteSpace=wrap;html=1;" parent="jevpeknbrTmHfBJ1SfYR-1" vertex="1">
          <mxGeometry x="92" y="90" width="620" height="1070" as="geometry" />
        </mxCell>
        <mxCell id="jevpeknbrTmHfBJ1SfYR-3" value="" style="rounded=0;whiteSpace=wrap;html=1;" parent="jevpeknbrTmHfBJ1SfYR-1" vertex="1">
          <mxGeometry x="92" y="90" width="620" height="50" as="geometry" />
        </mxCell>
        <mxCell id="jevpeknbrTmHfBJ1SfYR-4" value="footpage" style="rounded=0;whiteSpace=wrap;html=1;" parent="jevpeknbrTmHfBJ1SfYR-1" vertex="1">
          <mxGeometry x="92" y="1100" width="620" height="60" as="geometry" />
        </mxCell>
        <mxCell id="jevpeknbrTmHfBJ1SfYR-5" value="" style="ellipse;whiteSpace=wrap;html=1;aspect=fixed;" parent="jevpeknbrTmHfBJ1SfYR-1" vertex="1">
          <mxGeometry x="640" y="100" width="30" height="30" as="geometry" />
        </mxCell>
        <mxCell id="jevpeknbrTmHfBJ1SfYR-6" value="" style="strokeWidth=2;html=1;shape=mxgraph.flowchart.merge_or_storage;whiteSpace=wrap;" parent="jevpeknbrTmHfBJ1SfYR-1" vertex="1">
          <mxGeometry x="680" y="110" width="10" height="10" as="geometry" />
        </mxCell>
        <mxCell id="jevpeknbrTmHfBJ1SfYR-8" value="" style="shape=umlActor;verticalLabelPosition=bottom;verticalAlign=top;html=1;outlineConnect=0;" parent="jevpeknbrTmHfBJ1SfYR-1" vertex="1">
          <mxGeometry x="650" y="105" width="10" height="20" as="geometry" />
        </mxCell>
        <mxCell id="jevpeknbrTmHfBJ1SfYR-9" value="" style="ellipse;whiteSpace=wrap;html=1;aspect=fixed;" parent="jevpeknbrTmHfBJ1SfYR-1" vertex="1">
          <mxGeometry x="556" y="100" width="30" height="30" as="geometry" />
        </mxCell>
        <mxCell id="jevpeknbrTmHfBJ1SfYR-10" value="" style="shape=callout;whiteSpace=wrap;html=1;perimeter=calloutPerimeter;position2=0.5;size=10;position=0.5;" parent="jevpeknbrTmHfBJ1SfYR-1" vertex="1">
          <mxGeometry x="561" y="105" width="20" height="20" as="geometry" />
        </mxCell>
        <mxCell id="jevpeknbrTmHfBJ1SfYR-11" value="Post&#39;s Images" style="rounded=0;whiteSpace=wrap;html=1;" parent="jevpeknbrTmHfBJ1SfYR-1" vertex="1">
          <mxGeometry x="327.5" y="300" width="145" height="120" as="geometry" />
        </mxCell>
        <mxCell id="jevpeknbrTmHfBJ1SfYR-12" value="" style="rounded=0;whiteSpace=wrap;html=1;" parent="jevpeknbrTmHfBJ1SfYR-1" vertex="1">
          <mxGeometry x="191.25" y="640" width="410" height="140" as="geometry" />
        </mxCell>
        <mxCell id="jevpeknbrTmHfBJ1SfYR-13" value="Security Deposit" style="rounded=0;whiteSpace=wrap;html=1;" parent="jevpeknbrTmHfBJ1SfYR-1" vertex="1">
          <mxGeometry x="191" y="540" width="410" height="20" as="geometry" />
        </mxCell>
        <mxCell id="jevpeknbrTmHfBJ1SfYR-14" value="Rent" style="rounded=0;whiteSpace=wrap;html=1;" parent="jevpeknbrTmHfBJ1SfYR-1" vertex="1">
          <mxGeometry x="191" y="500" width="410" height="20" as="geometry" />
        </mxCell>
        <mxCell id="jevpeknbrTmHfBJ1SfYR-15" value="Posted by &lt;u&gt;x&lt;/u&gt;&amp;nbsp;on xx/xx/xxxx" style="rounded=0;whiteSpace=wrap;html=1;" parent="jevpeknbrTmHfBJ1SfYR-1" vertex="1">
          <mxGeometry x="331" y="440" width="140" height="20" as="geometry" />
        </mxCell>
        <mxCell id="jevpeknbrTmHfBJ1SfYR-16" value="Post&#39;s name" style="rounded=0;whiteSpace=wrap;html=1;" parent="jevpeknbrTmHfBJ1SfYR-1" vertex="1">
          <mxGeometry x="267.5" y="267" width="265" height="20" as="geometry" />
        </mxCell>
        <mxCell id="jevpeknbrTmHfBJ1SfYR-17" value="Location" style="rounded=0;whiteSpace=wrap;html=1;" parent="jevpeknbrTmHfBJ1SfYR-1" vertex="1">
          <mxGeometry x="191.25" y="913.5" width="410" height="20" as="geometry" />
        </mxCell>
        <mxCell id="jevpeknbrTmHfBJ1SfYR-18" value="Bills" style="rounded=0;whiteSpace=wrap;html=1;" parent="jevpeknbrTmHfBJ1SfYR-1" vertex="1">
          <mxGeometry x="191.25" y="520" width="410" height="20" as="geometry" />
        </mxCell>
        <mxCell id="jevpeknbrTmHfBJ1SfYR-19" value="Available rooms/Total rooms" style="rounded=0;whiteSpace=wrap;html=1;" parent="jevpeknbrTmHfBJ1SfYR-1" vertex="1">
          <mxGeometry x="191.25" y="620" width="410" height="20" as="geometry" />
        </mxCell>
        <mxCell id="jevpeknbrTmHfBJ1SfYR-20" value="Total lessees" style="rounded=0;whiteSpace=wrap;html=1;" parent="jevpeknbrTmHfBJ1SfYR-1" vertex="1">
          <mxGeometry x="191.25" y="780" width="410" height="20" as="geometry" />
        </mxCell>
        <mxCell id="jevpeknbrTmHfBJ1SfYR-21" value="Description" style="rounded=0;whiteSpace=wrap;html=1;" parent="jevpeknbrTmHfBJ1SfYR-1" vertex="1">
          <mxGeometry x="191" y="480" width="410" height="20" as="geometry" />
        </mxCell>
        <mxCell id="jevpeknbrTmHfBJ1SfYR-29" value="Booked type" style="rounded=0;whiteSpace=wrap;html=1;" parent="jevpeknbrTmHfBJ1SfYR-1" vertex="1">
          <mxGeometry x="191.25" y="560" width="410" height="20" as="geometry" />
        </mxCell>
        <mxCell id="jevpeknbrTmHfBJ1SfYR-30" value="Tags" style="text;html=1;align=center;verticalAlign=middle;resizable=0;points=[];autosize=1;strokeColor=none;fillColor=none;" parent="jevpeknbrTmHfBJ1SfYR-1" vertex="1">
          <mxGeometry x="369.25" y="640" width="50" height="30" as="geometry" />
        </mxCell>
        <mxCell id="jevpeknbrTmHfBJ1SfYR-31" value="Building type" style="rounded=0;whiteSpace=wrap;html=1;" parent="jevpeknbrTmHfBJ1SfYR-1" vertex="1">
          <mxGeometry x="191" y="580" width="410" height="20" as="geometry" />
        </mxCell>
        <mxCell id="jevpeknbrTmHfBJ1SfYR-32" value="" style="rounded=0;whiteSpace=wrap;html=1;" parent="jevpeknbrTmHfBJ1SfYR-1" vertex="1">
          <mxGeometry x="320.25" y="870" width="160" height="30" as="geometry" />
        </mxCell>
        <mxCell id="jevpeknbrTmHfBJ1SfYR-33" value="" style="ellipse;whiteSpace=wrap;html=1;aspect=fixed;" parent="jevpeknbrTmHfBJ1SfYR-1" vertex="1">
          <mxGeometry x="335.25" y="870" width="30" height="30" as="geometry" />
        </mxCell>
        <mxCell id="jevpeknbrTmHfBJ1SfYR-34" value="" style="shape=umlActor;verticalLabelPosition=bottom;verticalAlign=top;html=1;outlineConnect=0;" parent="jevpeknbrTmHfBJ1SfYR-1" vertex="1">
          <mxGeometry x="345.25" y="875" width="10" height="20" as="geometry" />
        </mxCell>
        <mxCell id="jevpeknbrTmHfBJ1SfYR-35" value="" style="ellipse;whiteSpace=wrap;html=1;aspect=fixed;" parent="jevpeknbrTmHfBJ1SfYR-1" vertex="1">
          <mxGeometry x="380.25" y="870" width="30" height="30" as="geometry" />
        </mxCell>
        <mxCell id="jevpeknbrTmHfBJ1SfYR-36" value="" style="shape=umlActor;verticalLabelPosition=bottom;verticalAlign=top;html=1;outlineConnect=0;" parent="jevpeknbrTmHfBJ1SfYR-1" vertex="1">
          <mxGeometry x="390.25" y="875" width="10" height="20" as="geometry" />
        </mxCell>
        <mxCell id="jevpeknbrTmHfBJ1SfYR-39" value="Registered Lessees:" style="rounded=0;whiteSpace=wrap;html=1;" parent="jevpeknbrTmHfBJ1SfYR-1" vertex="1">
          <mxGeometry x="334" y="830" width="120" height="20" as="geometry" />
        </mxCell>
        <mxCell id="jevpeknbrTmHfBJ1SfYR-40" value="General" style="rounded=0;whiteSpace=wrap;html=1;" parent="jevpeknbrTmHfBJ1SfYR-1" vertex="1">
          <mxGeometry x="209.25" y="670" width="370" height="20" as="geometry" />
        </mxCell>
        <mxCell id="jevpeknbrTmHfBJ1SfYR-41" value="Personal tags" style="rounded=0;whiteSpace=wrap;html=1;" parent="jevpeknbrTmHfBJ1SfYR-1" vertex="1">
          <mxGeometry x="209.25" y="730" width="370" height="20" as="geometry" />
        </mxCell>
        <mxCell id="jevpeknbrTmHfBJ1SfYR-42" value="" style="triangle;whiteSpace=wrap;html=1;" parent="jevpeknbrTmHfBJ1SfYR-1" vertex="1">
          <mxGeometry x="490.25" y="877.5" width="10" height="15" as="geometry" />
        </mxCell>
        <mxCell id="jevpeknbrTmHfBJ1SfYR-43" value="" style="triangle;whiteSpace=wrap;html=1;rotation=-180;" parent="jevpeknbrTmHfBJ1SfYR-1" vertex="1">
          <mxGeometry x="300.25" y="877.5" width="10" height="15" as="geometry" />
        </mxCell>
        <mxCell id="jevpeknbrTmHfBJ1SfYR-44" value="Logo" style="rounded=1;whiteSpace=wrap;html=1;" parent="jevpeknbrTmHfBJ1SfYR-1" vertex="1">
          <mxGeometry x="110" y="102.5" width="60" height="25" as="geometry" />
        </mxCell>
        <mxCell id="jevpeknbrTmHfBJ1SfYR-45" value="Language" style="rounded=1;whiteSpace=wrap;html=1;" parent="jevpeknbrTmHfBJ1SfYR-1" vertex="1">
          <mxGeometry x="180" y="102.5" width="60" height="25" as="geometry" />
        </mxCell>
        <mxCell id="jevpeknbrTmHfBJ1SfYR-46" value="Currency" style="rounded=1;whiteSpace=wrap;html=1;" parent="jevpeknbrTmHfBJ1SfYR-1" vertex="1">
          <mxGeometry x="250" y="102.5" width="60" height="25" as="geometry" />
        </mxCell>
        <mxCell id="jevpeknbrTmHfBJ1SfYR-47" value="" style="ellipse;whiteSpace=wrap;html=1;aspect=fixed;" parent="jevpeknbrTmHfBJ1SfYR-1" vertex="1">
          <mxGeometry x="600" y="100" width="30" height="30" as="geometry" />
        </mxCell>
        <mxCell id="jevpeknbrTmHfBJ1SfYR-48" value="" style="shape=image;verticalLabelPosition=bottom;labelBackgroundColor=default;verticalAlign=top;aspect=fixed;imageAspect=0;image=data:image/png,iVBORw0KGgoAAAANSUhEUgAABAAAAAQACAYAAAB/HSuDAAAABmJLR0QA/wD/AP+gvaeTAAAgAElEQVR4nOzdeXTdd33n//fnSl4S25A9kJYUElY7YQ9hKzWQBAwkjS1dSbFxm5lpDfTXzrT9HaCdoUVMO11mukxpS4uHDmkhiaWvZQcHSIFQApR9CRCsQClLIQWSkI04iRfp+5k/7JIaL7FsSZ/vvffxOCenp5Rz8mxyZN3v636+328EAAAAAAAAAAAAAAAAAAAAAAAAAAAAAAAAAAAAAAAAAAAAAAAAAAAAAAAAAAAAAAAAAAAAAAAAAAAAAAAAAAAAAAAAAAAAAAAAAAAAAAAAAAAAAAAAAAAAAAAAAAAAAAAAAAAAAAAAAAAAAAAAAAAAAAAAAAAAAAAAAAAAAAAAAAAAAAAAAAAAAAAAAAAAAAAAAAAAAAAAAAAAAAAAAAAAAAAAAAAAAAAAAAAAAAAAAAAAAAAAAAAAAAAAAAAAAAAAAAAAAAAAAAAAAAAAAAAAAAAAAAAAAAAAAAAAAAAAAAAAAAAAAAAAAAAAAAAAAAAAAAAAAAAAAAAAAAAAAAAAAAAAAAAAAAAAAAAAAAAAAAAAAAAAAAAAAAAAAAAAAAAAAAAAAAAAAAAAAAAAAAAAAAAAAAAAAAAAAAAAAAAAAAAAAAAAAAAAAAAAAAAAAAAAAAAAAAAAAAAAAAAAAAAAAAAAAAAAAAAAAAAAAAAAAAAAAAAAAAAAAAAAAABAGal0AAAwa9KaNWvO7O/vf1zO+XEppcfnnJ8QEadFxKKIOD4ilkbEgn3//T0RsSMi7o+IXRFxW0rpqznnf0opfS3n/E9VVX0nInKB/18AgFlmAACADrVhw4YFd9111/kppeflnC+IiOdExJJZ/tvcFxGfSCldn3P+2IknnvipjRs37pnlvwcAMA8MAADQQUZHR1vbt2//6YhYGxGXxt5v9+fTrTnnrRFx1TnnnPOx0dHRep7//gDAUTIAAEAHGBgYWNFqtX4+IkYi4lGle/b5dkppU875b6uqmiwdAwAcngEAAJorDQ0NvSLn/PqIeF7pmIfwsZTSH46Pj787PDMAABrJAAAADTQ4OPizKaXfiIhnl26ZoY+nlP5gfHz82tIhAMD+DAAA0CDtdvvciHhLRDy/dMsx+mir1fqlsbGxL5cOAQD2MgAAQAOsW7fuYbt27fqdlNIvRUR/6Z5ZMpVzfsvu3bvfsG3btntLxwBArzMAAEBhw8PDz67r+p0RcXbpljnytVartW5sbOwzpUMAoJcZAACgkA0bNiy48847/yil9CvR/b+Tp1NKv5tz/p2qqqZLxwBAL+r2DxsA0EgjIyNnTE9PvyMiXlS6ZZ59ICJ+rqqq75cOAYBeYwAAgHnWbrefERHviYjTS7cU8v26rl82MTFxY+kQAOglrdIBANBL2u32SyPihujdi/+IiEe0Wq2PDA4OXlQ6BAB6iQEAAObJ4ODgSES8KyKWlm5pgKUppWvb7fZw6RAA6BVuAQCAeTA0NHRpznlzRPSVbmmYqZTSmvHx8WtLhwBAtzMAAMAcGxwcvCil9O6IWFC6paF2R8Qrqqr6QOkQAOhmBgAAmEPDw8NPr+v6hohYVrql4X5Y1/VKDwYEgLljAACAOdJut38iIj4VET9RuqVDfCcinuUVgQAwNzwEEADmwIYNGxZExJZw8T8Tj4qI8Xa77TkJADAHDAAAMAfuuuuuN0bEs0p3dKCfTin9VukIAOhGbgEAgFk2NDR0Qc75fWFoP1p1RFxYVdU/lA4BgG5iAACAWXTJJZcsW7Ro0Zcj4szSLR3uW4sXLz7nHe94x32lQwCgW/hmAgBm0cKFC383XPzPhkfv2rXrTaUjAKCbOAEAALNkYGDgaa1W6zMR4SF2s2Oq1Wo9c2xs7IulQwCgGzgBAACzYHR0tNVqtd4aLv5nU39d138RvrAAgFnhQwoAzIJTTjllMKX0q6U7utCZK1as+OLk5ORXSocAQKdzAgAAjl3y6ro59cZwCgAAjpkBAACOUbvdfllEnFu6o4s9pd1uv6R0BAB0OgMAABy715cO6AH+GQPAMXKcDgCOwfDw8Hl1XX+6dEePeGZVVZ8rHQEAncoJAAA4BtPT079YuqFX5Jx/oXQDAHQyJwAA4CitWrVq0dKlS78XESeWbukRd0bEI6uq2l06BAA6kRMAAHCUli5d+rJw8T+fTkopeRggABwlAwAAHL11pQN60NrSAQDQqdwCAABHYd/x/zsj4vjSLT3m3hNPPPHkjRs37ikdAgCdxgkAADgKS5cufXa4+C9h2d133/2s0hEA0IkMAABwFHLOK0s39Cr/7AHg6BgAAOAopJR+pnRDD/PPHgCOgmcAAMAMtdvthRFxV7gFoJQdJ5544kmeAwAAM+MEAADMUF3XTwwX/yUtveOOOx5fOgIAOo0BAABmqK+v73GlG3qdfwcAMHMGAACYobqufftcmH8HADBzBgAAmKFWq+Xb58L8OwCAmTMAAMAM5ZzPLt3Q63LOjy3dAACdxgAAADP3yNIBxCNKBwBApzEAAMDMLS0dQCwrHQAAncYAAAAzZwAoz78DAJghAwAAzEyKiCWlI4ilsfffBQBwhAwAADAD69evPz78/myCvosvvvi40hEA0El8gAGAGZienl5YuoG9li1btqh0AwB0EgMAAAAA9AADAAAAAPQAAwAAAAD0AAMAAAAA9AADAAAAAPQAAwAAAAD0AAMAAAAA9AADAAAAAPQAAwAAAAD0AAMAAAAA9AADAAAAAPQAAwAAAAD0AAMAAAAA9AADAAAAAPQAAwAAAAD0AAMAAAAA9AADAAAAAPQAAwAAAAD0AAMAAAAA9AADAAAAAPQAAwAAAAD0AAMAAAAA9AADAAAAAPQAAwAAAAD0AAMAAAAA9AADAAAAAPQAAwAAHKENGzYs2LVr1xmlO9hr165dZ2zYsGFB6Q4A6BSpdAAANMGGDRsW3HPPPWfmnH8iIs6s6/qMVqv1kznnR0XEGRHxqIg4PYznTVNHxK0R8Z2I+G7O+dsR8a/7/vp2X1/fdx/+8Id/e+PGjXtKRgJAExgAAOgZl1566QkLFiw4JyKW55zParVaZ+Wcz4qIsyLixMJ5zK27IuIbKaVv1HX9jYiYTCltj4h/rqrqnsJtADAvDAAAdJ3Vq1efvGDBghWx90J/RUQ8KSIeF3u/xfe7j3+vjohbIuJrOeftETEZ+8aBqqruLJsGALPLhyAAOla73X54SukpEbG8rutzUkpPiogVsfeoPhyr70fE9pTSZF3X21NK2xcuXPilK6+88oelwwDgaBgAAOgEaWBgYHlK6RkR8YyU0vLYe6H/yMJd9KbvRcTn/u3EQM75cxMTE5MRkQt3AcBhGQAAaJx2u31SSunZOefzI+LpEfG0iPiJwllwON+JiBtzzp9PKX1qz549n7zmmmvuLh0FAP+eAQCAoi6//PLF99133zNTSs/LOT8/Ip4RvtmnO3wvIj6XUvrHnPPHduzY8ZnrrrtuV+koAHqXAQCAedVut4/b9+3+yoh4XkQ8KyKWla2CeXFPRHwyIj6ec/5QSulTVVXtLh0FQO8wAAAwpy699NIT+vv7L4yI56eUnhcRT42IvsJZ0ARTEfHFnPP1rVbrYwsWLPiwBwwCMJcMAADMqna73ddqtc7LOV+Yc35hRDw7Io4r3QUd4L6I+FhEfCgiPrBixYobR0dH68JNAHQRAwAAx6zdbj8jpXRBzvmCiHhuRBxfugm6wH0R8YmU0vUppW1jY2M3lw4CoLMZAACYsX338b+wruuXpJQuiognlm6CLpcj4qaIeF9K6f055494fgAAM2UAAOCIrFmz5pF9fX1DEdGOiPMjor9wEvSyByLigznnampqaptXDgJwJAwAABzSwMDA4/r6+tbknC+OiOdERKt0E3CA6dj7doGqr6+v2rRp03dLBwHQTAYAAPYzMjJyxvT0dDv2ftPvoh86y1REfDgixqempia2bt16R+kgAJrDAABAjIyMnFHX9fqc889FxPLSPcCsqCPiExFRTU1NXb1169bbSgcBUJYBAKBHXXbZZadPTU2NhG/6oRdMR8SHcs7vWLRo0TVXXnnlD0sHATD/DAAAvSUNDg7+TKvV+oWc80BELC4dBMy7eyLiqlar9baxsbHPl44BYP4YAAB6wMDAwFkppQ0ppfURcUbpHqAxvppSevuePXve7hYBgO5nAADoUu12uy/nvCql9AsR8fLw2j7g0O7POVcppbdVVfWPpWMAmBsGAIAuMzIy8uipqalXp5Quj4jTS/cAHefrKaX/09fX9zdXX331D0rHADB7DAAAXWDft/1rUkobIuJF4YF+wLHblVLaFhEbx8fHry8dA8CxMwAAdLB2u/3wiFgfEa8Jr+8D5s5Hc85vSSltqapqd+kYAI6OAQCgAw0PDz++rus3RMRQRCwq3QP0jB+klP5yz549f75169Y7SscAMDMGAIAO0m63nxURvxURLwvH/IFy7ss5/01K6Y+rqvp26RgAjowBAKD50tDQ0Ctyzq+PiOeVjgH4d/ZExKa6rv9wYmJie+kYAA7PAADQYENDQxfknH87In66dAvAYUynlKqc8+9UVTVZOgaAgzMAADRPGhwcHEwpvSEinlw6BmCGrq/r+jcnJiY+WzoEgP0ZAACa498u/H8rIs4tHQNwjAwBAA1jAABogHa7fWFEvCkinlO6BWAW1TnnsZTSm6qq+mrpGIBeZwAAKGhwcHBlSukPIuL80i0Ac6hOKU1MT0//xsTExDdKxwD0KgMAQAHtdvupEfG/IuKC0i0A82h3RFzR39//21dfffWtpWMAeo0BAGAeDQ8Pn51z/v2c80BEtEr3ABSyI+f8l4sWLfq9K6+88oelYwB6hQEAYB5cfPHFxx933HGvyzm/NiKOL90D0BD/knN+7ebNm6vSIQC9wAAAMIdGR0db27dv/4WIGI2IRxbOAWiqz7ZarV8ZGxv7ZOkQgG5mAACYI+12+zkR8eaIeGbpFoAOkCPinf39/a/1fACAuWEAAJhl7Xb7pJTS7+ScXxURfaV7ADrM7Sml/7Z8+fK/GR0drUvHAHQTAwDALNl33P9XYu9x/xMK5wB0ui/Vdb1hYmLiU6VDALqFAQBgFgwPD59T1/VbI+K5pVsAukgdEW9buHDha70tAODYGQAAjsH69euXPPDAA7+XUvqliOgv3QPQpb4bEf+lqqrNpUMAOpkBAOAoDQ4O/nRK6a0R8aTSLQA94qqpqalf27p1622lQwA6kQEAYIYuueSSZYsWLfqjiPjF8OcowHy7JyJeV1XVxtIhAJ3GB1eAGRgcHFyZUnp7RDy6dAtAj9vc39//mquvvvoHpUMAOoUBAOAIrF+/fsnOnTv/JHzrD9Akt+acX7V58+Z3lQ4B6AQ+xAI8hIGBgSe3Wq2/i4inlG4B4AA5Iv5y586dr7/22mvvLx0D0GR9pQMAmmp0dLR12mmnvTGl9M6IOKN0DwAHlSLiWf39/evOPffcT23fvv2W0kEATeUEAMBBjIyMnDE9Pf2OiHhR6RYAjtielNLvLV++/L+Pjo7WpWMAmsYAAPBjBgcHX5FS+r8RcWrpFgCOygci4ueqqvp+6RCAJjEAAOyzatWqRUuWLPmfKaVfCX8+AnS6W1NKPz8+Pv6+0iEATeEZAACx98j/ggULrk0ptcPFP0A3WBoRI+ecc86O7du3f7J0DEAT+JAL9Lx2u/3SiHhnRJxcugWAOfGeBQsWrL/qqqvuKh0CUJITAEDPGh0dbZ1yyim/n1J6S0QcX7oHgDnz+LquB1asWHHD5OTkbaVjAEpxAgDoSe12+6SIeEdEvKx0CwDzZmdEvKaqqitKhwCU4AQA0HMGBgaemFK6PiKeXboFgHnVHxE/u3z58oVDQ0M33HDDDbl0EMB8cgIA6ClDQ0OX5pzfEXsfDgVA73rfnj17Rq655pq7S4cAzJdW6QCAeZKGhoZGc85bwsU/ABEvWbBgwaeGh4cfXzoEYL44AQB0vXa7fVxEvD0ihku3ANA4d6SU2uPj4x8qHQIw1zwDAOhql1122Sl1XV8bES8v3QJAIx0fEcMrVqz45uTk5E2lYwDmkgEA6FoDAwNPzDl/OCKeUroFgEbrj4iB5cuXHzc5OfnB0jEAc8UtAEBXGhoaekHO+ZqIOLF0CwCdI+f8tyeddNIvbty4cU/pFoDZZgAAuk673R6OiL+NiEWlWwDoSB/YtWvXwLZt2+4tHQIwm7wFAOgqg4ODr4uIq8PFPwBH78JFixZ9cPXq1aeVDgGYTU4AAF1j32v+3li6A4Cusb2vr++iTZs2fbd0CMBsMAAAHW90dLQ1OTn5lpzzq0q3ANB1vh0RL66q6p9LhwAcKwMA0NFWrlzZf9ppp12Rc15XugWArvX9uq4vmJiY2F46BOBYeA0g0LE2bNiwIKV0ZURcVroFgK62NKU0+KQnPen9N998862lYwCOlhMAQEe6/PLLF993332bI+LlpVsA6Bl3RcRLq6r6dOkQgKNhAAA6TrvdXhgR4xHxs6VbAOg5P6jr+sUTExNfKh0CMFNeAwh0lMsvv3xxRGwLF/8AlHFKq9X68MDAwDNLhwDMlBMAQMfYd+x/a0S8tHQLAD3v7oi4oKqqz5UOAThSBgCgI7j4B6CBbo+9rwi8qXQIwJFwCwDQeKtWrVp03333bQkX/wA0y6kR8cGBgYEVpUMAjoQBAGi00dHR1tKlS/9vRKwq3QIAB3Fqq9W6bmRk5FGlQwAeigEAaLI0OTn59ohYWzoEAA7jUdPT0x9as2bNI0uHAByOAQBorKGhoT/LOf9c6Q4AOAJn9/X1vW/t2rUnlg4BOBQDANBIQ0ND/zXn/CulOwBgBs7ds2fPe9evX7+kdAjAwRgAgMYZHBz81Zzz/yjdAQBH4dk7d+4c27Bhw4LSIQA/zgAANMrg4OArUkp/VLoDAI7By++6664/Kx0B8OP6SgcA/JvBwcHnppTeHRELS7cAwDE6b8WKFVOTk5MfLR0C8G8MAEAjDA8PPz4iro+Ih5VuAYBZ8sIVK1Z8Y3Jy8kulQwAiIlLpAIDVq1ef1t/f/4mIOKt0CwDMst0ppZeOj49/qHQIgGcAAEWtX79+SX9//7vDxT8A3Wlhznlzu91+QukQAAMAUNQDDzzw1xFxXukOAJhDJ0XE1nXr1rnNDSjKAAAUMzQ09FsppVeW7gCAefCk3bt3b263257BBRRjAACKGBoaGso5v6l0BwDMowsj4vdLRwC9ywIJzLuBgYEnp5TeFRGLSrcAwDx73vLly789OTn5hdIhQO/xFgBgXrXb7VMj4jMR8VOlWwCgkJ2tVusFY2NjnykdAvQWtwAA82Z0dLQVEe8MF/8A9LbFdV2Ptdvtk0qHAL3FAADMm8nJyd+PiItKdwBAAzwmIioPBQTmkwEAmBeDg4Nrcs6vLd0BAA3yooj4b6UjgN7hGQDAnBseHj67ruvPRsQJpVsAoGHqnPOqzZs3v790CND9DADAnLr44ouPX7x48Sci4smlWwCgoW6LiKdXVfWvpUOA7uYWAGBOLV68+I/CxT8AHM5pEfG3ngcAzDUDADBnhoaGXhkRryndAQAd4MU55zeWjgC6m1sAgDnRbrefEBGfjYilpVsAoEPUEXFhVVX/UDoE6E4GAGDWrVy5sv/UU0/9SEQ8p3QL9Ig6Iu45gv/sYFIc/AGdJx5rFHBUvhkRT6uq6kh+fgFmpL90ANB9TjnllDeFi384lAci4vaI+G5E7Egp3RURO/7dX/fknH+47/92b0TsyDnv998pdWFw6aWXntBqtZamlJZGxNK+vr4Tcs7LImJpSmlJRDy8ruuHxd6TP0tbrdaynPMJ+/730/f9taREO3SQx6SU/joiLisdAnQfJwCAWTU4OPjilNL7wzNG6C33RcT3I+LWiLg95/y9Vqt1a0TcXtf191JKt0XE7bt27frutm3b7i1aWtj69euX3H///ae3Wq3TI+LUiHhESun0iDi1ruvTU0qP2Pefnx4RJ5VshcL+Q1VVV5SOALqLAQCYNatXrz65v7//SxFxRukWmAO3RcQ/R8TXc85fb7VaX885f31qaurrW7duva10XDdqt9tLW63W2dPT02e3Wq2z6ro+O6V0dkScFRE/FU4y0t12tFqtp46NjX29dAjQPQwAwKwZHBwcSykNle6AY3BHRHwpIr727y/yd+3a9fVe/+a+aVauXNl/+umn/1Rd12ellM7OOZ8VEWdHxDn7/qfXqdENPrpixYqVo6OjdekQoDsYAIBZMTQ0dFnO+arSHXCE9kTEZOy92L8ppfSlVqt106ZNm75buItZ0G63j4uI5RFxbs55RUrpyRHx1Nj7rnXoKCmlXx8fH//T0h1AdzAAAMdsZGTkjOnp6ZvC/bo0086I+GLO+caU0o11XX/+/vvvv+m6667bVTqM+bXvz6qn5ZyfllJ6WkQ8PSIeXTgLHsoDdV0/fWJi4iulQ4DOZwAAjlVqt9vXR8SLSodAROSIuDki/jHn/LGc8+dardZXqqqaLh1GM11yySXLFi1a9JSU0vNyzs+PiGdHxCmlu+DH3HjiiSeev3Hjxj2lQ4DOZgAAjsng4OCr9r2uCEr5XkRcn3O+vq7rf9iyZcstpYPoXCtXruw/+eSTn5pSelFK6YKIeH5EHFe6CyLiN6uq+oPSEUBnMwAAR63dbp8ZEV+OiGWlW+gpD0TEDTnn9/f19V0/Njb25dJBdK9Vq1YtWrZs2XPrur4gpXRR7L1twGtOKWFXRDylqqqvlg4BOpcBADhaqd1ufzAiXlg6hK6XI+LzOefrU0rvjohPONJPKevXr1+ya9euF+WcXxERL4uInyzdRE/51IoVK57rrQDA0TIAAEel3W6vjYgrS3fQ1T6fUppIKW0dGxu7uXQM/Lh2u92XUnp2RKzOOa+JiMeUbqL7pZQ2jI+P/5/SHUBnMgAAM3bZZZedMjU1NRkRp5ZuoavkiPhkznkipbSlqqpvlg6CmRgYGHhaSml1SmlNRKwo3UPXujsinlRV1fdLhwCdp790ANB5pqam/iJc/DM7ckR8PCL+bmpqamLr1q13lA6CozUxMXFjRNwYEb+9Zs2an+rr67s0ItZHxDPKltFlToiIt0XEK0qHAJ3HCQBgRoaGhl6Sc/770h10vFtSSlfknK+uqmqydAzMpeHh4fOmp6cvSym9MoynzJKc88WbN29+d+kOoLMYAIAjtn79+iU7d+6cjIgzS7fQkfaklK6JiI3j4+MfjL3f/kPPGB0dbU1OTr4oIjbknFeHk5gcm1ti760AO0qHAJ3DLx7giO3cufN14eKfmbstIv5P7L3w/3bpGChl35Pbr4+I64eHh8+enp7+xZTSf4qIUwqn0Zl+Muf8uoj47dIhQOdwAgA4IsPDw0+q6/oLEbGwdAsd4/qU0puXL1/+Hq+sgoPbsGHDgjvvvPPSlNKGiLigdA8dZ3dd10+ZmJj4SukQoDMYAIAj0m633xcRF5XuoPHqiLgm5/zHmzdv/njpGOgkg4ODz00p/XpErI6IVukeOsZ7q6p6eekIoDMYAICHNDg4uC6l9M7SHTTarpzzW1NK/9vr++DYjIyMPHpqaurX9p0KWFy6h+bLOQ9t3ry5Kt0BNJ8BADisdru9NCK+EhE/UbqFRpqOiKsi4n9UVfXV0jHQTYaHh8/OOf9GzvnnI2JB6R4a7VsRsbyqqgdKhwDN1lc6AGi2FStW/G5EvLR0B40zHRFvm56ebk9MTFwxOTl5R+kg6Dbbt2+/a/v27dc+8YlPfHtKqT+l9NTwAGcO7oSU0tT27dtvKB0CNJsTAMAhDQwMnNVqtbaHI6js7711Xb9hYmLixtIh0EsGBgae2Gq1RiOiHZ4RwIF29PX1PWHTpk3fLR0CNJdfHsAhtVqt/x0u/nnQx1qt1rOqqnq5i3+YfxMTE1+pqmqkrusVEfHu0j00ztK6rv9n6Qig2ZwAAA6q3W6/NCKuK91BI/xLzvm1mzdv3hwRuXQMsNfQ0NAFOec/iYhzS7fQGDkiXlBV1T+WDgGayQkA4ADtdrsvInyLwFTO+U8XLlz45H1Pl3bxDw0yPj5+fUQ8MyJeFxH3Fc6hGVJE/EH4kg84BH84AAcYGhp6dc75r0p3UNRn6rp+laP+0Bna7faZEfHnEXFJ6RbK81pA4FAMAMB+9r3272sR8YjSLRTxw4j4bxHxV1VVTZeOAWZmcHDwZ1NKb46IM0u3UNQ/3X777StuuOGGqdIhQLO4BQDYT0rp9eHiv1e9q7+///FVVf2Fi3/oTJs3b35XRDwx5/yHEVGX7qGYx5922mmvKh0BNI8TAMCPrFmz5if7+vr+KSKOK93CvLor5/wqx0WhuwwODj43pfT2iHh86RaKuH3Xrl1nb9u27d7SIUBzOAEA/Eh/f/9vhov/XvPJiHiWi3/oPps3b/54RDwrIq4onEIZpy5evPiXSkcAzeIEABAREQMDAytardYXI6KvdAvzYk9EvLaqqjeHp/tD1xscHLwopXRFRDyydAvz6t6pqanHbt269bbSIUAzOAEAREREX1/fG8PFf6+4JSIurKrqz8LFP/SEzZs3v7+vr+/8iPhw6Rbm1bIFCxb8aukIoDmcAABiYGDgya1W68YwCvaC6yLilVVV3Vk6BJh/7Xa7L+f8hpTSb4c/83vFjv7+/sdcffXVPygdApTn2z4gzjnnnLdFxBNKdzCn6pTSb1ZV9f9NTk4+UDoGKGNycjJPTk5+eMWKFR+OiJdFxJLSTcy5hdPT063JyckPlA4BynMCAHrcwMDA+a1W65OlO5hTd6eU1o2Pj7+3dAjQHCMjI4+anp6eiIjzSrcw5+7v7+8/6+qrr761dAhQlqNf0ONardYbSjcwp77TarVWuvgHftymTZu+ExEvioh3lW5hzh2/Z8+eXysdAZTnBAD0sKGhoRfknD0Qqnt9ZGpqas3WrVvvKB0CNFoaGhp6Xc7598Nnw0U1kroAACAASURBVG62s6+v7+xNmzZ9t3QIUI4TANDDcs6/WbqBObN1586dq1z8A0cgj4+P/2FE/GLsfUUo3Wnx9PT0r5SOAMoyAECParfbz4qIl5buYPallP58xYoVg9dee+39pVuAzlFV1d/knFdFxI7SLcyZ16xbt+5hpSOAcgwA0LtGSwcw+1JKvzE+Pv6fR0dH69ItQOfZvHnzB1ut1nMiwjHx7vTwPXv2/HLpCKAc93lBDxoeHj6vrutPl+5gVtUR8ctVVf1V6RCg8w0MDJzVarU+EBFnlW5h1t0WEY+uqsorYaEHOQEAPaiu69eXbmBW5XDxD8yiiYmJb9R1fWFEfKt0C7PutJzzutIRQBlOAECPGR4efkpd1zeGn/9uUUfEf6qq6orSIUD3abfbj4iID0bE8tItzKpvRMTjq6qaLh0CzC8nAKDH1HX9unDx3y1yzvmXXPwDc6Wqqu9HxKrYe8FI9zgrIi4pHQHMPwMA9JCRkZFHR8RQ6Q5mRc45v2bz5s1vLR0CdLeqqr7d19e3MiK+XrqFWeV2QOhBBgDoIXVdvzYi+kt3cOxyzr/s4h+YL5s2bfpORPxMRHyzdAuz5vzBwcEXl44A5pcBAHpEu90+Ned8eekOjl1K6U2bN29+S+kOoLdUVfWvrVbrwoj4XukWZkdKySkA6DEGAOgROedfiojjS3dwbHLOfzo+Pj5augPoTWNjY1+PiJdExJ2lW5gVF7bb7WeUjgDmjwEAesDll1++OKX06tIdHLNrU0qvLR0B9Laqqm6KiHZE7C7dwrHLOf9q6QZg/hgAoAfs2LHjlRHxiNIdHJPPR8Rar2wCmqCqqn9IKW2IiFy6hWOTUhpes2bNT5XuAOaHAQC6X0op/XrpCI7JP/f397+kqqodpUMA/s34+PjfppTeULqDY7agr6/vP5eOAOaHd4FDlxscHFyZUvpQ6Q6O2o5Wq/X8sbGxL5YOATiINDQ09I6c87rSIRyTHyxZsuRRV1xxxc7SIcDccgIAulxK6b+UbuCo1SmltS7+gQbLJ5xwwn+IiI+WDuGYnLJjx47LSkcAc88AAF2s3W4/JiIuLt3BUfvd8fHxa0tHABzOxo0b90TEUETcUrqFo5dSek3pBmDuGQCgu22IiL7SERyVd69YseJNpSMAjkRVVd9vtVrtiNhVuoWjdt7w8PB5pSOAueXCALrUqlWrFi1cuPBvI2Jp6RZm7NsR8dK3vOUt95cOAThS27dvv+Wcc875YUSsKt3CUUvbt2938gy6mBMA0KWWLVs2EhGnl+5gxnbXdT1QVdWdpUMAZmp8fPzNOed3lu7g6OSc161evfrk0h3A3DEAQJfKOXulTwfKOf/XiYmJz5buADha++4l/0rpDo7KcX19fZeXjgDmjgEAutDAwMD5EfH00h3M2Ls2b978J6UjAI5FVVU7Yu9DAR8o3cLMpZReMzo66hoBupQfbuhCrVbr1aUbmLHbI+LVEZFLhwAcq6qqboqIN5bu4Kic/eUvf/mFpSOAuWEAgC5z2WWXnR4Ra0t3MCM5pbS+qqrvlw4BmC1VVf1RRLyndAczl1L65dINwNwwAECXmZqa+oWIWFi6gyOXUto4Pj7+vtIdALMsT01N/ceIuLV0CDN28Zo1a36qdAQw+wwA0EX23bP3C6U7mJFv7ty587WlIwDmwtatW29LKXkobefpa7Val5eOAGafAQC6yPbt2y+KiEeX7uCI1RGxbtu2bfeWDgGYK+Pj4+MppStLdzAzKaX/6GGA0H38UEMXSSn9fOkGjlzOeWNVVZ8o3QEw1/bs2fNfIuK20h3MyJnbt29fWToCmF0GAOgSa9euPTHnfGnpDo7YLYsWLXp96QiA+bB169Y7IuLXSncwY+tLBwCzywAAXWJqamo4IhaX7uCIvfrKK6/8YekIgPlSVdVVEbGtdAcz0m6320tLRwCzxwAAXSLn/MrSDRyx91ZV5dVYQM9ptVq/HhE7S3dwxJaklC4uHQHMHgMAdIHh4eEnRcTzSndwRO6LiNeUjgAoYWxs7Os55/9euoMjl3P+D6UbgNljAIAuUNf1z5Vu4Ij9flVV3y4dAVBKSumPI+Lm0h0csRePjIw8qnQEMDsMANDh2u12X0QYADrDVyLif5WOACipqqrdKaVXR0Qu3cIRaU1PT68rHQHMDgMAdL4XRcQZpSN4aCml36yqanfpDoDSxsfHPxIR7yrdwRFbWzoAmB0GAOhwKaX/WLqBI/Kh8fHxa0pHADRFXdf/f0QYRTvDucPDw+eVjgCOnQEAOtjatWtPzDlfWrqDh5Qj4jdKRwA0ycTExDciYmPpDo5Mznl96Qbg2BkAoINNTU0NR8Ti0h08pC1VVX26dARAA/33iPhh6QgeWs557apVqxaV7gCOjQEAOljO+ZWlG3hI03Vdv7F0BEATVVV1e0T879IdHJGTlyxZcmHpCODYGACgQw0PD58dEc8r3cHhpZTeNjExsb10B0CD/UFE3FI6goeWUrqsdANwbAwA0KFyzoOlG3hI901NTb2pdARAk1VV9UBE/E7pDo7Ixe12+7jSEcDRMwBAh8o5D5Vu4PBSSn+6ZcuW75XuAOgAfxMRTks137Kc80WlI4CjZwCADjQwMHBWRDytdAeHdWd/f/+flI4A6ARVVU1HxGjpDh5aq9VaU7oBOHoGAOhArVbrsohIpTs4tJTSH1911VV3le4A6BRVVW2OiM+V7uDwcs6rL7/8cm8ggg5lAIDO5Ph/s929YMGCvygdAdBpcs5/WLqBh7Ts/vvv9zYA6FAGAOgw7XZ7eUQ8uXQHh5ZzfuuVV17pvdYAM3TOOedMRMRk6Q4ekgcRQ4cyAECHyTm3SzdwWA8sWLDgT0tHAHSi0dHROuf8R6U7OLyc8yWrVq1aVLoDmDkDAHSYlNJI6QYOLaX09quvvvrW0h0Aneqkk056Z0R8q3QHh3XC0qVLLygdAcycAQA6yPDw8DkR8cTSHRzSlG+uAI7Nxo0b90TEH5fu4CG5DQA6kAEAOsj09LSH/zVYznlTVVXfLN0B0OmWLFnytoj4XukODuvSdru9sHQEMDMGAOggKaXh0g0cUt3X1/d7pSMAusEVV1yxMyLeXLqDwzoh5/zi0hHAzBgAoEO02+1zI+LxpTs4pL8fGxu7uXQEQLfYs2fPX0eEN6o02+rSAcDMGACgQ+Sc15Ru4LDcrwowi6655pq7I+JtpTs4tJTSJaOjo64noIP4gYUOkVK6tHQDh3RTVVX/UDoCoNtMT0+/OSKmS3dwSKd/+ctffnbpCODIGQCgA4yMjDw6Ip5auoODSym9tXQDQDfasmXLv0TE35fu4LBeXjoAOHIGAOgAdV375dpcP9y5c+fflY4A6FYppbeUbuDQUkqvKN0AHDkDAHSAnPPFpRs4pCu3bdt2b+kIgG41Pj5+XUR8rXQHh/TkfScVgQ5gAICGW7du3cMi4oWlOzi4uq7/unQDQJfLKaWNpSM4NCcVoXMYAKDhdu/efVFELCzdwUH948TExJdKRwB0u/7+/r+JiPtLd3BwOWcDAHQIAwA0XErJ8f/m+qvSAQC94KqrrrorpTRWuoNDelG73V5aOgJ4aAYAaLCVK1f255w9XKeZbo2IzaUjAHrF9PT0n5du4JAW5ZxfXDoCeGgGAGiw00477fyIOKl0Bwf1d1VV7S4dAdArJiYmboyIz5Xu4OBardaq0g3AQzMAQIPVdX1p6QYOKkeEB1IBzLOU0ttKN3BwOedLIiKV7gAOzwAADZZSMgA006erqvrn0hEAvaa/v38sInaV7uCgHjkwMPCM0hHA4RkAoKHa7fYTIuKxpTs4UErpHaUbAHrRVVdddVdEvKd0BwfX19fnuUXQcAYAaKiU0stKN3BQU3v27KlKRwD0qpTSVaUbOLic80tKNwCHZwCAhso5v7R0Awf13q1bt95WOgKgV+Wcr42IH5Tu4KDOa7fbHl4MDWYAgAZqt9vHRcQLSndwUI7/AxRUVdXulNJ46Q4Oqi+l9MLSEcChGQCgmZ4fEYtLR3CAu5csWfLu0hEAvc6zWJqrrusLSjcAh2YAgGa6sHQAB8o5V1dcccXO0h0AvW5sbOyTEfHV0h0cKKVkAIAGMwBAM11UOoADtVqtd5ZuAGCvlNKVpRs4qMe22+3HlI4ADs4AAA2zZs2aR0bEk0t3cIBvjo+Pf7R0BAB7TU1N/V1E5NIdHCjn/OLSDcDBGQCgYfr6+l4YEal0B/vLOU+ED5oAjbFly5Z/iYjPlu7gQB4ECM1lAICGSSl5h24D5Zw3l24A4ABV6QAO6qLR0VHXGdBAfjChWVLO2f3/zfOdiYmJT5eOAOAAxtlmOmX79u1uZ4QGMgBAg7Tb7XMi4hGlO9hfSumacPwfoHGqqvpmRHyhdAcH8jYAaCYDADSIb/8ba2vpAAAObt8zWmgYDwKEZjIAQIOklC4s3cABbss5f6R0BAAHl1LaUrqBg3rBqlWrFpWOAPZnAICGaLfbx0XEz5TuYH8ppW1VVU2X7gDg4KqqmoyIm0t3cIDjlyxZ8pzSEcD+DADQHM+KiMWlIzjAttIBADykd5UO4ECtVmtl6QZgfwYAaAjvzG2ke+699973l44A4PDquh4v3cCBcs5ONkLDGACgIfySbKT3XHfddbtKRwBweBMTEzdGxDdKd3CAZ19++eVON0KDGACgAfY9JOf80h0cwPF/gA6RUvJndvMs3rFjx9NLRwAPMgBAAyxbtuz8iDiudAf72b1r1673lo4A4MjUde05AA3kOQDQLAYAaAbH/5vn49u2bbu3dAQAR+akk076WETcU7qD/eWcf7p0A/AgAwA0gPv/myel9PelGwA4chs3btwTEf9QuoMDPH/lypX9pSOAvQwAUNi++/+9J7dhpqenryvdAMDMpJT82d08S08++eSnlo4A9jIAQGHLli17ZkQcX7qD/fzrxMTETaUjAJiZqamp6yIil+5gf61W6wWlG4C9DABQnuP/DZNzfl/4AAnQcbZs2XJLRGwv3cEBPAcAGsIAAIW5/795HCEF6Gj+DG+eF4yOjrrugAbwgwgFbdiwYUFEPLd0B/vZs3DhwveXjgDg6BhxG+mkm2++eXnpCMAAAEXdc889z4iIpaU72M8nr7zyyh+WjgDg6Jxwwgn/GF4H2DjT09OeAwANYACAguq6dk9cw+ScffsP0MH2vQ7ww6U72F9K6XmlGwADAJRmAGiYnPN7SjcAcGxSSu8u3cABnl86ADAAQGnnlw5gP3ece+65XywdAcCxmZ6e/mDpBg5wZrvdfkTpCOh1BgAoZGBg4HERcVrpDvbzodHR0bp0BADHZmJi4hsR8a3SHRzgOaUDoNcZAKCQlJJfgg2TUrqhdAMAsyOl9KHSDewv5+zkIxRmAIByDAANMz09fUPpBgBmR87ZANAwKaVnl26AXmcAgEKcAGicWycmJiZLRwAwO6anpw0AzXPeypUr+0tHQC8zAEAB69ate1hEnFu6gwflnD8cEbl0BwCzY8uWLbdExD+X7mA/x5966qnnlI6AXmYAgAJ27dp1Xvj5axT3/wN0H7cBNI/bAKAsFyBQhuP/DdNqtW4o3QDA7Gq1WgaAhvEgQCjLAAAFuP+/cb4/Njb2ldIRAMyuqampG8LtXU3jBAAUZACAeTY6OtoKJwAaZd/xfx8QAbrMli1bvhcRXy3dwX6esHbt2hNLR0CvMgDAPLvpppseHxF+8TVIXdc3lG4AYM64DaBZ0tTU1LNKR0CvMgDAPOvr63PvW8P09fV9pHQDAHPmw6UD2F9d1+eVboBeZQCA+ef4f7P8wP3/AN2rr6/vo6Ub2J83AUA5BgCYZzlnv/Sa5WPh/n+ArrVp06bvRsQ3S3ewH6choRADAMyjdrt9XESsKN3Bg3LOHy/dAMDcyjl/rHQD+zml3W6fWToCepEBAObXUyOiv3QED0opGQAAut8nSgdwgGeUDoBeZACAeZRzfmbpBvaze8mSJZ8tHQHA3DL2NpIBAAowAMA8arVaBoBm+fwVV1yxs3QEAHPupoi4p3QE+zEAQAEGAJhHTgA0jm+EAHpAVVXTEfHp0h3sx2ciKMAAAPPkkksuWRYRTyzdwX7cEwrQI9wG0DinjIyMPKp0BPQaAwDMk8WLFz8t/Mw1Sl9fnw+DAL3D6NswdV27DQDmmYsRmCeO/zfOt/a9GxqAHrBgwYJPRMR06Q72YwCAeWYAgPnjl1yz+PYfoIdceeWVP4yIydIdPCjn7LMRzDMDAMwfJwAaxL2gAL0n5/yx0g3sxwAA88wAAPNg3bp1D4uIx5bu4EEpJU+DBugxrVbrM6Ub2M9pIyMjZ5SOgF5iAIB5sHv37meGn7cm2VXX9RdLRwAwv4y/zTM1NXVe6QboJS5IYB54AGDjfKmqqt2lIwCYX3Vd3xwR95XuYD9uA4B5ZACA+fHU0gE8KKX0+dINAMy/qqqmI+ILpTt4UErpKaUboJcYAGAepJSeVrqBB+Wc3QMK0KNyzm4DaBZfksA8MgDAHFu/fv2SiHhc6Q4e1Gq1Plu6AYBiPlc6gP2cuXbt2hNLR0CvMADAHLv//vvPiYi+0h38yAO33nrr9tIRAJTR19fnFFjDTE1NnVu6AXqFAQDmWErJ0bZm+cINN9wwVToCgDLGxsa+FhF3l+7gQXVdew4AzBMDAMwxD7dplpSS4/8AvS1HhIfBNkir1Xpy6QboFQYAmHtOADSLez8BepwxuFlyzgYAmCcGAJhDo6OjrYjwS61BpqenfegD6HF1Xftd0Cznttttz0uCeWAAgDl08803PzYilpTu4EfuPffcc28uHQFAWU4ANM5xEfHY0hHQCwwAMIemp6fd/98sXxgdHa1LRwBQVlVV34yI20t38CC3AcD8MADAHPJQm2ZJKX2hdAMAjfHF0gHsx6sAYR4YAGAO5ZyfVrqBB9V1fWPpBgAaw++EBvHaZJgfBgCYW36ZNUjO2QkAACIiIufsBECzuG0S5oEBAObIZZdddkpE/ETpDn5kd6vV2l46AoBmMAo3zplr1649sXQEdDsDAMyR6elp97I1y1erqtpdOgKAZrjjjju+GhE7S3fwoD179qwo3QDdzgAAc8TTbJsl5/z50g0ANMcNN9wwFRE3le5gP748gTlmAIA5knO2YjdIq9VyrycA+3EbQLP47ARzzwAAcySldE7pBvbjQx4A+zEON0tKyQAAc8wAAHMjRYQBoEE87RmAH+d3Q+P47ARzzAAAc2DNmjVnRsSy0h38yLerqrqzdAQAzbJr164vRkRduoMfOWX16tWnlY6AbmYAgDnQ19dnwW4Wx/8BOMC2bdvujYhvlO7gQQsWLHAbAMwhAwDMAff/N44BAIBD8TuiQeq69hkK5pABAOaAp9g2i3s8ATgUvyOapdVq+QwFc8gAAHPDL68GyTl7zzMAh+J3RIPknJeXboBuZgCAWbZy5cr+MAA0yX3nnnvu10tHANBMKaUvlW5gP+eWDoBuZgCAWXbyySc/NiIWle7gR24eHR31hGcADqqqqm9FxL2lO/iRE0ZGRs4oHQHdygAAs6zVanl4TYPknLeXbgCg0XJE3Fw6ggdNTU35LAVzxAAAs8wbAJolpWQAAOCwcs5fLt3AgzwIEOaOAQBmWV3XTyrdwIMMAAAcgcnSATzIZymYOwYAmGUpJU+vbZBWq+XpzgA8FL8rGiSlZACAOWIAgFnUbrf7IuJxpTv4kbs3bdp0S+kIAJqtv7/fLQDN8sTSAdCtDAAwux4T3gDQJJOx9+FOAHBImzZt+m5E3Fm6gx85ZfXq1SeXjoBuZACAWZRztlg3iDcAADADfmc0yIIFC3ymgjlgAIBZ1Gq1/LJqEA8ABGAG3AbQLE8oHQDdyAAAs8gJgGbxWicAjpTRuHEMADAHDAAwuwwADeLDHABHymjcLL5UgblhAIDZ5bU1zXF7VVXfLx0BQMfwKsBmcQKA/8fevUfdedZ1/v9eez9p2qYFSikgKMdyaJIOKog4gFZQnIotTdM76cE6OOPE06jjrDn81Pm5HmfUER1n1Bn9aRmdaC1tspO0Uofo4CEqqIiAUvq0lFJEKNCWFrC0zenZ1++PZhLSnJ7z99p7v15ruZb/sHivRZJ778++7vtmGRgAYIlcddVVT4uIp2Z3cNiHswMAGB2DweChiLg/u4PDXrBly5ZV2REwbgwAsERmZ2fXZjdwRK31juwGAEbOndkBHLbqwQcffGF2BIwbAwAsEfeqNccJAADmywDQkH6/77MVLDEDACwd96q1xQAAwHy5drTFZytYYgYAWDpW6oaUUvyKA8B8GQDaYgCAJWYAgKXjDQDt2BcRH8uOAGDkGAAa4vZKWHoGAFgCl1xyyZkR8dzsDg776GAwmM2OAGDkfCweH5FpgxMAsMQMALAEzjzzzBeFv08t8QsOAPN2aDy+O7uDw57add152REwTnxhgSUwHA4dUWuI+/8BWAQjckPcBgBLywAAS8DFqTk+vAGwILVWI3JDer2ez1iwhAwAsARcnNpSSjEAALBQriFt8RwAWEIGAFgCTgC0Zd++fX69AWBBaq0GgIbUWg0AsIQMALBI09PTvbBOt+T+W2655fPZEQCMptnZWQNAW/zIAkvIAACLdOeddz4nIs7I7uAwv/4DsGCHRuT7sjs47PkXX3zx6uwIGBcGAFik2dlZy3RDHN0EYAkYk9vRP/PMM8/PjoBxYQCARXL/f3MMAAAslmtJQ0opbrWEJWIAgEXyBoC2lFL8agPAYhkAGuKzFiwdAwAskhMAzfGhDYBFMSY3xwkAWCIGAFg8A0A79kXEx7IjABhtpRRjckO8ChCWjgEAFuGyyy57SkQ8I7uDw+4ZDAaz2REAjLb77rvv4xGxP7uDw16cHQDjwgAAi9Dv9y3SbbkjOwCA0bdnz56DEfGR7A4OO2fDhg1Pz46AcWAAgEXo9/svym7gCEc2AVhCngPQkFWrVvnMBUvAAACLUGt1MWqLAQCAJVFrdU1piM9csDQMALAILkZtcQIAgCXkmtIQn7lgaRgAYBFKKS5GDdm3b5/jmgAsCa8CbEuv1/OZC5aAAQAWx8WoHffdcsstn8+OAGBsOAHQECcAYGkYAGCBDj2N9snZHRzmgxoAS2YwGHwhIj6T3cFh50dEyY6AUWcAgAXyNNq2eFgTAMvAtaUdZ11++eXPzI6AUWcAgAVyFK05PqQBsKQ8B6AtU1NTPnvBIhkAYOHOzw7giF6vd1d2AwDjZTgcfiS7gaP47AWLZACABSqlvDi7gSNmZ2d9SANgSZVSXFsaMhwOffaCRTIAwAK5BaAps48++ujHsiMAGDt3ZwdwhNcvw+IZAGBhSjiG1pJP7t69e192BADjZc2aNfdExDC7g8MMALBIBgBYgENPoT0ru4PD/EIDwJLbunXr3oi4N7uDw86fnp72/QUWwV8gWABPoW3OR7MDABhbRuZ2nPHBD37wWdkRMMoMALAA7v9vS63VAADAsqi1GgAa4kcYWBwDACyAAaA5PpwBsCx6vZ6RuSE+g8HiGABgATyFti1+nQFgGbnGNMQAAItjAICF8R7adtQzzzzTrzMALAu3mbXFjzCwOAYAmKdDT599YXYHh33m+uuvfyQ7AoCxdXdE1OwIDjMAwCIYAGCe7rzzzmdHxBnZHRzmaCYAy2YwGHwxIu7L7uCwF3Zd18+OgFFlAIB5mp2dtTy3xdFMAJabsbkdq2dnZ788OwJGlQEA5snDZ9ri3kwAlptrTVu8ChAWzgAA89Tr9Vx02uJXGQCWlVcBtsWPMbBwBgCYJxedtngFIAArwLWmIT6LwcIZAGD+XHQaMjs760MZAMuqlOJa0xCvAoSFMwDAPBx66uwLsjs47MFbbrnl89kRAIy3ffv2fSS7gaMYAGCBDAAwD/1+/ysiYnV2B4f5RQaAZXdobH4ou4PDnn/RRRdNZUfAKDIAwDx4BWBbaq33ZDcAMDE8CLAdpz3zmc/0KkBYAAMAzEOt9aXZDRxRSnEkE4CV4prTkIMHD74wuwFGkQEA5sErANvivcwArCC3nTWk1+t5JhMsgAEA5qHW+uLsBo7iwxgAK8Lo3JznZwfAKDIAwPwYABqyatUqH8YAWBG9Xs81pyG1VicAYAEMADBHb37zm0+PiOdmd3DYwzfeeON92REATIZ+v+/UWVsMALAABgCYo8cee+z88HemJX6JAWDFHBqdH87u4DADACyALzMwR7Ozs47/t8UvMQCsNNeedpx72WWXPSU7AkaNAQDmqJRiAGiLD2EArDSnzxrS7/c9CBDmyQAAc1Rr9QrAhngaMwAJjM8N6ff7bgOAeTIAwBw5AdAcH8IAWFHG57Z4EwDMnwEA5u4l2QEcMTU15UMYACvN+NwWtwDAPBkAYA4OPWTmvOwODtv70pe+9N7sCAAmi/G5OQYAmCcDAMxBv9/3639bPjY9PT3MjgBgstx0002fjIjHsjs47IXZATBqDAAwB71ez/3/bfELDAAZakT8XXYEhz2v67p+dgSMEgMAzIE3ADTHAABAFtegdqyanZ398uwIGCUGAJgbtwA0xFOYAchSa70nu4EjpqamvAkA5sEAAHPgFYBtKaX48AVAil6vZ4RuiFcBwvwYAODUSkS4BaAhw+HQhy8AUgyHQyN0W7wJAObBAACncPnllz87ItZkd3DY8NFHH/1YdgQAk6nf7xuhG+IEAMyPAQBOod/vO/7flnt37969LzsCgMl0xhlnfCwivIq2EaUUAwDMgwEATsH9/83xywsAabZu3bo3Ij6V3cFhBgCYBwMAnMJwODQANMTTlwFogGtRO8679NJLz86OgFFhAIBTcAKgLZ6+DEC2UoprUUNWrVrlQYAwRwYAODUDQENqrT50AZDKtagt/X7fbQAwRwYAOIktW7asCq+XaUqv13PsEoBUpRTXooZ4EwDMnQEATuJzn/vcCyJiKruDI4bDD0qk5AAAIABJREFUoV9dAEjlBEBz/FgDc2QAgJNw/39zPjcYDB7KjgBgsh08eNAA0BYnAGCODABwEt4A0BxHLgFId/PNNz8YEZ/P7uAwAwDMkQEATsIJgLY4cglAQz6WHcBhz5uenva9BubAXxQ4OQNAQ7wCEICGuCa14/QPfvCDz8qOgFFgAICTMwA0ZDgcugUAgCY4ldaWqakptwHAHBgA4AQuvfTSsyPCmtwQJwAAaIVXAbbFqwBhbgwAcAJnnHHGi7IbOJpfWwBohWtSc7wKEObAAAAnUGt9SXYDR9m3bt26T2ZHAECEEwCtcQIA5sYAACfgFYDN+fj09PQwOwIADvn7iNifHcHjSikGAJgDAwCcQK/XcwtAWxy1BKAZg8FgNh4fAWiDAQDmwAAAJ1BrNQA0pNbqqCUArXFtasczLrnkkjOzI6B1BgA4vhIRF2RHcJS7swMA4AmcTmtHOe20087PjoDWGQDgOLque1ZEnJ3dwREetgRAa7wJoC29Xs/zm+AUDABwHLXWl2Y3cLThcOhDFgBNMU63xe2bcGoGADiOXq9nAGhL7fV6PmQB0BTjdFs8wBlOzQAAx/eS7ACO8unBYPBYdgQAfKlD43TN7uBxtVa3AMApGADgOGqtBoC2+PUfgOYMBoMvRsQD2R0c5iGAcAoGADg+bwBoSK31ruwGADgB16h2POOyyy57SnYEtMwAAE/Qdd1ZEfHl2R0cUUr5SHYDAByPa1Rb+v2+UwBwEgYAONZLIqJkR3CED1cAtGo4HLpGNcSrAOHkDABwLPf/N2Z2dtaHKwBadXd2AEd4FSCcnAEAjmUAaEvdv3+/D1cANMkptbZ4FSCcnAEAnqDW+tLsBo7yqVtvvfXR7AgAOIG7w6sAm+FVgHByBgB4glKKAaAtflkBoFmHXgX4mewODnMCAE7CAABfouu6fkRYjhtSazUAANA616p2PKXruvOyI6BVBgD4EsPh8LkRcXp2B0e4txKAEeBa1RAPAoQTMwDAl+j3+47/N8YAAEDrXKvaUkpxmhNOwAAAX8IDANvjFYAAtG44HLpWNcQJADgxAwAczSsA2zI8++yzP5odAQAn4wRAW7wKEE7MAABHMwC05d6tW7fuzY4AgJM5/fTT7wmvAmyGEwBwYgYAONr67ACOcld2AACcyvXXX/9IRNyb3cFhLz30ZifgCQwAcMiGDRueHhHnZndwRCnl7uwGAJgj16x2nB4Rz8mOgBYZAOCQqakpv/6358PZAQAwF7XWO7MbOKLWui67AVpkAIBDXCjaMxwOfZgCYFQYrduyNjsAWmQAgCNcKBpTa/VhCoBR4ZrVkFLKBdkN0CIDABxSSnECoC17L7zwwr/LjgCAuSilOLXWFgMAHIcBAI7wDIC23D09PT3MjgCAuVi3bt3HI+Kx7A4OuyAiSnYEtMYAABHRdd0zI+Kc7A6O4pcUAEbGodHamwDa8aSu656VHQGtMQBAeABgo9xLCcBIcRtAczzfCZ7AAACPc4FojwEAgJHi7TVt8SBAOJYBACKi1+s5AdCYXq/nQxQAo8Z43ZDhcGgAgCcwAEC4BaBFw+HwruwGAJgPr69tSynFCU94AgMAPM4A0JZPDwaDL2RHAMB8HDhw4MMRUbM7OMwJAHgCAwATzxsAmuQXFABGztvf/vaHI+JT2R0cdt5VV131tOwIaIkBgInn+H97aq3u/wdgVBmxG3LgwAGnAOBLGACYeB4A2CQfngAYSV4F2BzPAYAvYQAAF4YWGQAAGFWuYQ3xKkA4mgGAiVdrNQA0pt/vewMAACOp1uoa1paXZgdASwwA4A0ArXn0ggsu+Fh2BAAs0Ex2AEfxQw98iZIdAJm6rntORHw8u4OjvG8wGLwiOwIAFqrrus9HxJOzO3jc1NTUeTfeeONnszugBU4AMNFKKS/LbuBopZTbsxsAYJHuyA7giNnZ2QuzG6AVBgAm2nA4NAC0x9FJAEadMbshtdZ/lN0ArTAAMNGcAGjPcDj0oQmAUWfMbosTAHCIAYBJZwBoTK3VhyYARp1rWVt83oNDDABMrK7rzoqIF2Z3cJRHLrzwwr/LjgCAxej3+06ztWVd13X97AhogQGAidXr9daHvwOtuXN6enqYHQEAi3HTTTd9MiK+kN3BYWcMh8MXZUdAC3z5YWLNzs46DtYYbwAAYEzUiLgzO4Ij+v2+BwFCGACYYB4A2CT3TAIwFmqtRu2GeBMAPM4AwCQzALTHAADAuHBNa4sBAMIAwISanp7uhVfCNGd2dtavJQCMCwNAWwwAEAYAJtQdd9zx/Ig4O7uDo3gDAABjw3NtmvOcq6+++pzsCMhmAGAieQBgk7wBAICxMRgMPhERD2d3cFg5ePCg059MPAMAE6nX6zkG1h5HJQEYJzUi7siO4AgPAgQDABPKBaBJBgAAxorbANpSSlmf3QDZDABMqq/MDuAYf5MdAABLqdb6t9kNHFFr9fmPiWcAYOJ0XffkiHhedgdHm52d9SEJgLFiAGjO+kNvgoKJ5S8Ak+jCiCjZERzl/l27dn06OwIAllIp5YPZDRxlzW233fbC7AjIZABgEjn+1R73SAIwdgaDwUMRcW92B0f0ej1vgmKiGQCYRK/MDuAYH8gOAIBl4hk3Dam1fm12A2QyADCJviY7gGPclh0AAMvBbQBtKaX4HMhEMwAwUS677LKnRMRLsjs42nA49JAkAMbScDg0ALTl5R4EyCTzh5+Jctppp31VeABgaw48+uijM9kRALAcnABozll33HGHH4OYWAYAJkqt9RXZDRzjrt27d+/LjgCA5fDAAw/cFRF7szs4YnZ21m0ATCwDABPFfV9NcvwfgLG1Z8+eg+FtN03xeZBJZgBgotRa/YPfGEcjARh3rnXN8XmQiWUAYGJ0XXdeRDwvu4OjeTgSAOPOta45L+u67rTsCMhgAGCSvDw7gGNNTU25BQCAsdbr9Vzr2nJ6r9dbnx0BGQwATAz3ezXpgZtuuulT2REAsJxqrQaAxgyHQw+GZiIZAJgYtVYnANrzoewAAFhug8HgoYgweLfF50ImkgGASfK12QEcrZTy/uwGAFghrnlt8bmQiWQAYCJ0XffsiHhmdgfHeF92AACshFKKa15b1l977bVrsiNgpRkAmAju/2+TD0MATIpaqxMAbek/9thjL8uOgJVmAGAi1Fo96KU9X9i2bdtHsiMAYIUYvRvjByImkQGASeEf+Pb8bUTU7AgAWAmDweDeiPhMdgdH+IGISWQAYBKUiPAPfGNqrX4JAWDSuA2gIU4AMIkMAIy9ruueFxFPze7gaKWUD2Q3AMAKc+1ry4u6rntydgSsJAMAY6/W+trsBo41HA7fm90AACuplPLX2Q0cpVdKeXV2BKwkAwBjzz/sTXr4wgsvvCs7AgBWUq/Xc/tbY4bDoc+JTBQDAJPgNdkBHONvp6enh9kRALCSbrrppk9ExAPZHRxRSnFSlIliAGCsbdiw4dyIuCC7g2P4BQSASeVBgG155Zvf/ObTsyNgpRgAGGurVq36x/H4WwBoiwEAgInkLTjNWf3oo4++PDsCVooBgLHmvq42DYdDv34AMKkMAI3xwGgmiQGAsVZKcf9/ex7p9Xp3ZkcAQIapqSkjeHv8YMTEMAAwtg7dz/WK7A6O8beDwWA2OwIAMtx0001/FxEPZndwlFdPT0/7XsRE8AedsfXFL37xqyNidXYHx/DLBwCT7gPZARzlnNtuu81Do5kIBgDGVinl67MbOFat9S+zGwAgU631L7IbOFqv1/O5kYlgAGCcuZ+rQf1+3wAAwEQrpbwnu4FjeG4UE8EAwFg6dB+XAaA9923btu2j2REAkOngwYN/GRE1u4OjGACYCAYAxtIdd9yxNiLOye7gGH+VHQAA2W6++eYHI+Lu7A6O8pyu656THQHLzQDAWJqdnfXrf5sceQSAiCileA5AY2qtr81ugOVmAGAslVIMAA3yAEAAeNxwODSKN8bnRyaBAYBx5T6u9szu37/fLQAAEB6K2ygnABh7BgDGzuWXX/7lEfH87A6OMfP2t7/94ewIAGjBfffd98GIeCS7g6Os67ruqdkRsJwMAIydXq/3ddkNHKvW+t7sBgBoxZ49ew5GxAeyOzhKKaW8KjsClpMBgLFTSvnG7AaOVUr58+wGAGhJrfXd2Q0crdb6+uwGWE4GAMbR67IDONZwOHSvIwB8iVKKBwG2xwDAWDMAMFYO3f//kuwOjvGFCy+88I7sCABoyezsrHG8Pf/oqquuekZ2BCwXAwBjpd/vO/7fpr+anp4eZkcAQEt27dr16Yj4eHYHRykHDx68KDsClosBgHHj+H+Daq1+4QCA43ONbIznADDODACMG/9gN8g9jgBwfEby9pRSvim7AZaLAYCxsXHjxhdExFdkd3CMGhF/lR0BAC0ykjfp+ZdffvlzsyNgORgAGBu9Xs9a26aZwWDwQHYEALTogQceeG9EfDG7g6NNTU29IbsBloMBgLFRa70ou4FjlVLeld0AAK3as2fPwYh4b3YHRxsOhx4szVgyADAWpqene6UUS22b/iQ7AABaVmt1rWxMKeUNXdf1sztgqRkAGAu33XbbV0fEudkdHKvW+qfZDQDQsl6v51rZnnOHw+ErsiNgqRkAGAu9Xu9bshs4rnsGg8G92REA0LJDbwLYn93B0fr9/sXZDbDUDACMCwNAg2qtf5bdAACtGwwGj0XE+7I7OFqt9Z9kN8BSMwAw8rque3JEfF12B8cqpRgAAGAO3DLXpK/puu687AhYSgYARt6hp/9PZXdwrOFw6MMMAMyB0bxJvVKK10wzVgwAjLxSiuP/bfrUzp07P5IdAQAj4l0RMZsdwTHcBsBYMQAwDvzD3KBa67uyGwBgVAwGgy9ExIeyOzharfVbIqJkd8BSMQAw0jZu3PiCiHh+dgfH6vV6785uAIBRUkpx7WzPM7que1l2BCwVAwAjrdfrXZLdwPGVUv4kuwEARslwONyT3cBxXZodAEvFAMCoe2N2AMf10AUXXHBbdgQAjBIPAmyWH5wYG+5nYWRdeumlZ69evfqzEXFadgvH+N3BYOBiCQDz1HXdXRHxouwOjlJnZ2efs2vXrk9mh8BiOQHAyDr99NPfEL78N6nW6hcMAFgYr9BtT+n3+9+aHQFLwQDAyKq1XpzdwPHVWt3/DwALUGs1ALTJAMBYMAAwkqanp3vhfqxWPdTr9f46OwIARtGqVat+PyJqdgfHeMO11167JjsCFssAwEi64447XhkRT8/u4Lj+eDAYzGZHAMAouvHGG++LiNuzOzjGGXv37n19dgQslgGAkVRr9fT/RpVS/iC7AQBGWa31ndkNHKuU4vQpI88AwEiqtboPq1GllD/KbgCAUdbr9f44u4FjHXr+lLeoMdIMAIycjRs3viAivjq7g+P62LZt2+7KjgCAUbZ69eo/ioh92R0c49mbNm36x9kRsBgGAEZOr9e7LLuB46u1Ov4PAIt0/fXXPxIR78nu4FjD4XBjdgMshgGAUbQhO4Dj6/V6BgAAWAKeqdOmUsrl4TYARpgBgJHSdd0zI8LRqzYNDxw48IfZEQAwDpyqa9ZzN27c+PLsCFgoAwCj5tLw57ZVf3PzzTc/mB0BAOPggQceeG9EfCG7g2P1ej23ATCyfJFi1Dj+3yhHFQFg6ezZs+dgROzJ7uC4DACMLAMAI+Pqq68+JyJen93B8TmqCABLzrW1TS/quu7C7AhYCAMAI+PAgQMXR8Sq7A6O67E1a9b8WXYEAIyZd2YHcHylFKcAGEkGAEZGrfVN2Q2c0F9u3bp1b3YEAIyTwWDw4Yi4N7uDY9VaL89ugIUwADASuq57cinl0uwOTuj/ZAcAwDgqpbjGtunCzZs3vyw7AubLAMCoeGNEnJ4dwfH1ej2v/wOA5fFH2QEc3+zs7KbsBpgvAwCj4prsAE7oU9u2bfvr7AgAGEe11ndExMHsDo5VSrl2enra9ylGij+wNO+qq656WkR8c3YHJ7Q7Imp2BACMo8Fg8FBEvCe7g+P6ipmZmddkR8B8GABo3oEDBzaGp/+37H9nBwDAOKu1utY2ajgcXpXdAPNhAKB5pZQrsxs4oX3hFUUAsKxKKb+b3cDxlVI2dV13WnYHzJUBgKZ1XffsiPj67A5O6E8Hg8EXsyMAYJwNBoPbIuLj2R0c11NLKd+SHQFzZQCgaaWUTeHPacscSQSAlfGO7ABO6OrsAJgrX6xoWq3V8f+G9Xq93dkNADAhfi87gOOrtV5y6aWXnp3dAXNhAKBZmzdvXh8Rr8zu4IQ+vG3btruyIwBgQrwzIh7NjuC41px++ul+tGIkGABo1nA4vCa7gRPzQCIAWDmDweCxiPjj7A6Or9b6T7MbYC4MADSp67p+RFyb3cFJuf8fAFaWa2+7Xr1x48aXZkfAqRgAaFIp5Rsj4tnZHZzQ55/ylKe8KzsCACZJv993+q5hvV7v27Mb4FQMALTKr/8NK6W887rrrjuQ3QEAk+Smm276RER8KLuDE3rzoVOs0CwDAM3puu6sWuvG7A5OyhFEAMjhFEC7nh0Rr8uOgJMxANCcWuvlEbEmu4MTGtZavYsYAHIY4dv25uwAOBkDAM0ppXj6f9veNxgMHsiOAIBJ9MADD/xlRHw+u4MTetM111zzpOwIOBEDAE258sornxcR35TdwYmVUm7NbgCASbVnz56DEeEkXrvW7Nu3z8MAaZYBgKbMzs5+d/hz2bRSyrbsBgCYZLXW7dkNnFgp5V9GRMnugOPxRYtmdF13WkR8Z3YHJ3Xbtm3b7sqOAIBJdtZZZ/1+RPxDdgcndMGmTZtemx0Bx2MAoBm11jdFxDOyOzixWuvO7AYAmHRbt27dW0pxG0DDaq3fnd0Ax2MAoBmllC3ZDZxcv983AABAA4zyzbtiw4YNT8+OgCcyANCEjRs3vigiXp/dwUnduW3btg9lRwAAEXv37n1HRDyS3cEJnbZq1Sq3ttIcAwBNKKX88/CwlNb5pQEAGnHrrbc+GhG/l93BidVat0xPT/u+RVP8gSRd13WnlVLenN3ByQ2HQwMAADSklOLa3LYXzMzMfHN2BHwpAwDpPPxvJPzdzp07/yY7AgA4otb6jojYl93BidVavye7Ab6UAYB0pZQfzm7g5Eop2yOiZncAAEcMBoMvhNsAWvemrutekh0B/5cBgFSbN2/+moj4uuwOTs6ThgGgWa7RbSullO/PjoD/ywBAqlrrv8xu4JQ+PhgM3psdAQAc68CBA7dGxP7sDk6s1vqdXdc9ObsDIgwAJLrqqqueUWu9MruDk6u17grH/wGgSbfccsvnI+IPsjs4qbMi4p9nR0CEAYBEs7OzWyLitOwOTq7X6zlaCAAN8zaAkfCDXdf1syPAAECKLVu2rKq1fm92B6f0qbVr1/5FdgQAcGIHDhz4nYg4kN3BST330JuvIJUBgBSf+9zn3hQRX5bdwSn9zvT09DA7AgA4sZtvvvnBiPjT7A5OzsMAaYEBgCw/lB3AnLwtOwAAOLVSimt2+17Xdd1XZkcw2QwArLgrrrjitRHxmuwOTumuwWDwruwIAODUVq9evS0ivpjdwcmVUn40u4HJZgBgxZVS/l12A6dWa/VLAgCMiOuvv/6RiHh7dgcnV2vduHnz5hdndzC5DACsqM2bN6+PiDdmd3BKtd/v/3Z2BAAwd7VW1+729WZnZ/9NdgSTywDAijr0D17J7uCU/mLbtm0fzY4AAObus5/97Dsj4jPZHZxcKeU7uq57dnYHk8kAwIrpuu45pZSrszuYE78gAMCI2bNnz8FSyk3ZHZzS6lrrv8qOYDIZAFgxpZQfjIhV2R2c0r6I2JYdAQDMn9sARkMp5buvvvrqc7I7mDwGAFbEZZdd9pRa65bsDuZk92AweCg7AgCYv8Fg8L6I+FB2B6d09v79+78/O4LJYwBgRUxNTW2JiLOzOzi1UsqN2Q0AwMKVUrZnN3BqpZTv77rujOwOJosBgGV36aWXnu3VfyPjwVrrLdkRAMDC1Vp/MyKG2R2c0jMP3SILK8YAwLI7/fTTfyAizs3uYE52DgaD/dkRAMDCDQaDv4+IP8vu4NRqrf/2mmuueVJ2B5PDAMCyuuaaa55Ua/3X2R3M2fXZAQDA4nkY4Mg4d9++fU4BsGIMACyr/fv3+/V/dNwzGAzenR0BACze6tWrt0fEY9kdnFop5d94IwArxQDAsjl0nMmv/yOi1npDRNTsDgBg8W644YZ/KKX8bnYHc/Lk/fv3/3B2BJPBAMCyOXSc6anZHcxJLaX8VnYEALCk3No3IkopP9x13XnZHYw/AwDLouu6s0opP5TdwZy9ZzAY3J0dAQAsnVrr70fE/dkdzMlZ3gjASjAAsCxqrT8QEU/L7mBuaq3XZTcAAEtrMBjsL6Vsze5gbmqtP+QUAMvNAMCS27Bhw9NLKT+a3cGcPVRKuSk7AgBYerXWX42IYXYHc3J2RPxEdgTjzQDAklu1atWPRMRZ2R3MTa31tweDgacEA8AYGgwGH4uIP8juYM7+xebNmy/IjmB8GQBYUhs3bnxBrfX7sjuYu36//6vZDQDA8imluNVvdEwNh8P/lB3B+DIAsKR6vd50RJyW3cGc/fm2bdvuyI4AAJbP/fff/zsR8ansDuZs46ZNm16dHcF4MgCwZDZu3PhVEXFNdgfz8tbsAABgee3Zs+dgKeU3szuYu1rrz2Q3MJ4MACyZXq/3k+HP1Cj5XERsy44AAJZfrfWt4WGAo+Q1Xdddmh3B+PFljSXRdd3rIuJbszuYlxs8/A8AJsOhhwH+YXYH8/KzF1100VR2BOPFAMBSKBHxH7MjmJ/hcPgb2Q0AwIr69ewA5uUlT3/6078jO4LxYgBg0TZt2vQdEeFBJaPlL3bu3PmB7AgAYOU88MADOyPi09kdzF2t9ec2bNhwbnYH48MAwKJ0XffkWutbsjuYn0P3AQIAE2TPnj0HI8LDAEfLU6empqazIxgfBgAWpZTyoxHxjOwO5uVzpZSbsiMAgJU3HA49DHD0fO/mzZtflh3BeDAAsGBd172k1vqvsjuYn1rr2zz8DwAm086dO+8JDwMcNf3hcPjL8fhzt2BRDAAsxs9HxGnZEcxPrfW67AYAII9bAUfSq7uuuyo7gtFnAGBBNm3a9E0R8cbsDubtr3bu3PnB7AgAIM8jjzzy9oi4L7uDefvPl1xyyZnZEYw2AwDzdvHFF6+utf5/2R0syH/NDgAAcu3evXtfRPxKdgfz9pzVq1f/eHYEo80AwLydddZZ3x8R52d3MG+fjoibsyMAgHyzs7NvjYj92R3MTynlhzZv3vzi7A5GlwGAedm8efMLI+InszuYv1LK/xgMBi70AEDs2rXr07XWG7M7mLfTh8Phb05PT/sex4L4g8O8DIfDX4mIM7I7mLfH+v2+h/8BAIfVWn8xu4EFedXMzMyW7AhGkwGAOeu67uqIeEN2BwvythtvvPGz2REAQDt27tz5gYj4s+wO5q/W+pau656d3cHoMQAwJ1dfffU54QFyo6r2er1fyI4AAJr0S9kBLMiTIsIJDubNAMCcHDhw4Kci4hnZHSzIu7Zt2/ah7AgAoD3nnHPO70TEvdkdLMjGTZs2fWt2BKPFAMApdV33uoj4nuwOFqbW+rPZDQBAm6677roDtdb/lt3BwtRa/+dll132lOwORocBgJPasmXLqoj4hYgo2S0syEfWr1//juwIAKBdBw8e/PWIeDi7gwX5sqmpqR/PjmB0GAA4qc9//vM/EREXZnewMKWUn5uenh5mdwAA7brllls+X2v9tewOFqaU8kObNm36xuwORoMBgBPauHHj19Za/112Bwv2mYcffvi3siMAgPaVUn4hIvZnd7AgvVrrb1xzzTVPyg6hfQYAjqvrujN6vd5vRkQ/u4WFKaX8yu7du/dldwAA7RsMBvfWWrdnd7Bgzztw4MDPZ0fQPgMAJ/KTEfGS7AgW7JFa6y9nRwAAo6PW+nMRUbM7WJha63d1XffG7A7aZgDgGF3XfUNE/KvsDhaulPKbg8HgoewOAGB07Ny584MR8YfZHSzKWzds2HBudgTtMgBwlK7rzoiIXw1/NkbZsNb6S9kRAMDoKaV4JeBo+7KpqSn/G3JCvuTxRD8bES/NjmDhaq3bBoPBh7M7AIDRs3379ndExF9nd7Ao13Zdtzk7gjYZADjs0OtDvi+7g0Wph+7fAwBYqP+SHcCi/dLll1/+ZdkRtMcAQEREXHnllc+qtW4LfyZG3e/u3LnzA9kRAMDoGgwG2yPi9uwOFuXp/X5/15YtW1Zlh9AWX/aIruv6s7Ozb4uI87JbWJzhcPhT2Q0AwMirtdafzY5g0V710EMPTWdH0BYDAFFK+dGI+IbsDhbtj3fu3Pme7AgAYPR99rOffVtEfCy7g8Uppfw/mzZt+pbsDtphAJhwXde9rtY6nd3B4pVSfjq7AQAYD3v27DlYa/UsgNHXq7Vef+WVVz4rO4Q2GAAm2NVXX31ORPxG+HMwDt6/ffv2P8iOAADGx759+7ZGxP3ZHSzaebOzs/9renraZ3588Ztg5cCBAzdExHOzQ1gSP54dAACMl1tvvfXRUsrPZHewJN4wMzPj8yIGgEnVdd0PRsTF2R0siQ8MBoN3ZEcAAONn9erV14VTAGOh1vpjmzZt+vrsDnIZACbQFVdc8YaI+PnsDpZGKeU/RETN7gAAxs/111//SER4ztB4mKq13tx13fOzQ8hjAJgwV1555fNKKW+LiH52C0viPdu3b/frPwCwbNasWfNrEXFvdgdL4qkRseuSSy45MzuEHAaACdJ13Rmzs7O7IuLc7BaWRq31J7IbAIDxtnXr1r211rdkd7BkvnL16tW/lh1BDgPABKm1/mJEfFV2B0vmPTt27NidHQEAjL9HHnnkuoj4ZHYHS6OU8u1XXHHF92V3sPIMABPiiiuu+K5Syr/I7mDyPH34AAATeUlEQVRJTWcHAACTYffu3fu8EWC8lFJ+wUMBJ0/JDmD5dV33lRHx5xFxRnYLS6ZGxAfCw/8AgJWzOiLWZ0ewpD558ODBl998883e9DAhDABjbsOGDedOTU29NyI87RMAAHiiPznnnHO++brrrjuQHcLycwvAGLv22mvXTE1N/V748g8AABzfNzz00EO/HX4cngheBTempqene5/+9KdvjIjXZ7cAAADtKqWsW7du3dTMzMwfZbewvAwAY+ppT3vaz5ZS/nl2BwAAMBK+fv369ffdfvvtf50dwvJxzGMMbdq06ftrrf8juwMAABgpByLijYPB4J3ZISwPA8CY6bru0ojYFU53AAAA8/cPw+HwtTt37vxgdghLzwAwRg697u9PI+Ls7BYAAGBk3Ts7O/uqXbt2fTI7hKXlLQBj4sorr3xWRNwcvvwDAACL8+x+vz+49tpr12SHsLScABgDXdc9MyL+LCLOz24BAADGxp+ffvrpb7j++usfyQ5habhPfMRdffXV5wyHwz+MiAuyWwAAgLHyFQcPHnzFc5/73MHdd989mx3D4jkBMMKuvfbaNXv37v2DiHhVdgsAADC2dkXEpsFgYAQYcZ4BMKIuvvji1Xv37r0lfPkHAACW1+UR8T/DD8gjzy0AI+iiiy6aOuecc7ZFxBuzWwAAgInwlevWrXvKzMzM72WHsHAGgNFTXvGKV/xGKeXK7BAAAGCivGrt2rX7Z2Zm3pUdwsIYAEbMpk2b/n1E/JvsDgAAYPKUUl63du3av5+Zmfmb7BbmzwAwQrquuyIifi3cewMAAOQopZRL1q5de9fMzMyHsmOYH18kR8TGjRvX9Xq9v4iIs7NbAACAiXcgIjYMBoP/nR3C3HkLwAi4+OKLV/d6vd8OX/4BAIA2rIqIt23cuPGl2SHMnQFgBKxZs+bnI+IrszsAAAC+xJN6vd6tl1122VOyQ5gbA0DjrrjiijeUUr4vuwMAAOA4zl+1atWvh9vLR4KHADas67qzSim/HxFPzm4BAAA4gQvWrVv3uZmZmfdkh3ByTgA0rNb6UxHxFdkdAAAAp/Bzmzdv/prsCE7OMY1Gbdy48Wt7vd6fh5EGAAAYDXdExMsHg8Fj2SEcny+Xjer1em8J//sAAACj44Ja649kR3BiTgA0qOu6DRGxK7sDAABgnvb3er0Lt23bdld2CMfyC3NjtmzZsioifia7AwAAYAFOGw6HP58dwfEZABrz0EMPbYqIF2d3AAAALNC3bdq06RuzIziWAaAh09PTvVLKj2V3AAAALMahN5rRGANAQ2ZmZv5JRFyQ3QEAALBIX3fFFVe8PjuCoxkAGlJr/YHsBgAAgKVQSvFGgMZ4C0AjLr/88uf2+/17wigDAACMiV6v9/Jt27a9P7uDx/my2Yher/fm8L8HAAAwRobD4XdnN3CEL5yNKKV8e3YDAADAErvq0ksvPTs7gscZABqwcePGfxQR52d3AAAALLGzV69evTE7gscZABrQ7/cvz24AAABYJldkB/A4A0ADaq2XZDcAAAAsk9d3XXdWdgQGgHRXXXXV0yLiq7I7AAAAlsnppZRvyY7AAJBudnb2G8LrGAEAgDFWa319dgMGgHS11tdmNwAAACyzr88OwADQgq/NDgAAAFhmF2zYsOHc7IhJZwDIVSJiXXYEAADAMutNTU19dXbEpDMAJOq67nkRcXZ2BwAAwApYmx0w6QwAufwFAAAAJsVLsgMmnQEg13OyAwAAAFbIi7MDJp0BINezswMAAABWyDOzAyadASBRKeVZ2Q0AAAAr5LzsgElnAEhUa31adgMAAMAKeWo8/iY0khgAcp2RHQAAALBCpi655BLfgRIZAHKdmR0AAADAZDAA5Do9OwAAAIDJYADIdTA7AAAAYKWce+65w+yGSWYAyPVYdgAAAMAKeWzr1q17syMmmQEg177sAAAAgBXy2eyASWcAyPVwdgAAAMAKeTA7YNIZABLVWj+T3QAAALBCPpEdMOkMAIlKKZ/ObgAAAFgJpZQPZTdMOgNALicAAACAiVBrvSO7YdIZAHLdnR0AAACwEobDoRMAyQwAiQ4ePOgvAAAAMAk+d+GFF/5tdsSkK9kBk67ruvsi4unZHQAAAMvo7YPB4E3ZEZPOCYB8TgEAAADj7k+yAzAApCul/Fl2AwAAwDKqw+HwluwIDADpaq3vzm4AAABYRu/duXPnPdkRGADSnXbaae+JiNnsDgAAgOVQShlkN/A4A0CyG2644R8i4j3ZHQAAAMvgQK31xuwIHmcAaMOt2QEAAABLrZRy42AwuDe7g8cZABrQ6/V+N7sBAABgidVa63/JjuAIA0ADtm3bdntEfDS7AwAAYAm9ezAY3JYdwREGgDbUWut/yI4AAABYKqWUn89u4GgGgEbs2LFjW0S8L7sDAABgCdyzdu3at2dHcDQDQDtqKeXHsiMAAACWwK9OT08PsyM4mgGgIdu3b/99r8gAAABG3CfWrFnz37MjOJYBoDGrVq364Yj4XHYHAADAQpRSprdu3bo3u4NjGQAac+ONN95XSvnR7A4AAIAFuOP+++//rewIjq+fHcCxbr/99r9et27dV0fES7JbAAAA5mh2OBxeunv37k9kh3B8TgC067si4jPZEQAAAHNRa/3lnTt3vie7gxMzADRqMBg8UGv9noio2S0AAACn8PHVq1f/v9kRnJxbABo2MzPz4XXr1h2MiNdltwAAAJzAo8Ph8Ju2bdv299khnJwBoHEzMzPvWrt27YtLKRdmtwAAADxRrfU7d+7c+QfZHZyaWwDaV0spWyLi/dkhAAAAT3Ddjh07bsiOYG4MACNgMBh88eDBg2+IiDuzWwAAAA7ZuW7duu/NjmDuSnYAc3f55Zd/eb/f//OI+IrsFgAAYKK9a82aNd+8devWvdkhzJ0BYMR0XXdhRLwzIp6R3QIAAEyk9x08ePBbbr755gezQ5gftwCMmMFgcFu/339VRNyT3QIAAEycPzz99NO/wZf/0eQEwIjavHnzC4fD4e9FxPnZLQAAwER4Z0RcPhgMvpgdwsIYAEbYpZdeevbq1avfFhHflt0CAACMrVpK+Y/bt2//iYio2TEsXD87gIX78Ic/vP81r3nNjscee+yZpZSXZ/cAAABjZ1+t9XsHg8F/zQ5h8ZwAGBObNm26rNb66xHx1OwWAABgLLx/OBxes3PnTq8jHxMeAjgmtm/ffkuv13tlRPxVdgsAADDSaq31l9asWfNqX/7HixMA46d0XfcvIuLnI+Ks7BgAAGCkvDcitgwGg7/JDmHpGQDGVNd1L4mIt0bEa7NbAACA5j1aa/3PpZSfHQwG+7NjWB4GgDG3adOmb6q1/mxEfFV2CwAA0JxHa63//dAX/4eyY1heBoAJcNFFF02dd955/zQi/n1EvCi7BwAASPdIRPzW7OzsW3bt2vXx7BhWhgFggkxPT/dmZmY21Fr/bUR8bXYPAACw4j4ZEb8cEdf5xX/yGAAmVNd1zymlXFVr/a6IOD+7BwAAWDb31Vq3lVJ+azAYvC87hjwGgAnXdV2/1vqPe73et9Vavy0i1mY3AQAAi/aRiHhHKWX3ww8/vGf37t37soPIZwDgKFdeeeVXDIfDr4uIV9ZaXxmPPzPgmclZAADA8Q0j4r6IuKvW+t5er/fegwcPvsd9/RyPAYBTuvjii1c/6UlP+vJa67Mj4rSIePJwOOxldwEsRinlhohYld3BinhfrfUt2REAS6HX6x2IiC/WWvfOzs5+4mlPe9qnrrvuugPZXYwGAwAAE6nrur+LiOdmd7D8Sim/tn379u/J7gCAbH7FBWBS3ZsdwMqotX4iuwEAWmAAAGAilVIMAJPj77MDAKAFBgAAJpUBYHIYAAAgDAAATC4DwOQwAABAGAAAmFwGgMmw75xzzvlkdgQAtMAAAMBEmp2d/WB2Ayvi/V6PBQCPMwAAMJF6vd6dEfFIdgfLq9b6l9kNANAKAwAAE2kwGMxGxN9md7C8SinvyW4AgFYYAACYZO/PDmB5zc7OOgEAAIcYAACYWLVWA8B4+8yuXbs+nh0BAK0wAAAwsfr9vgFgvP1JdgAAtMQAAMDE2rZt2wcj4lPZHSybHdkBANASAwAAk6zWWn8vO4Jl8ejevXvfkR0BAC0xAAAw6f53dgDL4v/ceuutj2ZHAEBLDAAATLT9+/e/MyL2Z3ew5HZlBwBAawwAAEy0t7/97Q9HxLuzO1hSB8LJDgA4hgEAgIlXSrk1u4EltWswGDyUHQEArTEAADDxDhw48FsRsS+7gyXzi9kBANAiAwAAE+/mm29+sJRyc3YHS+KvB4PBX2RHAECLDAAAEBG11rdmN7B4tdZfyW4AgFYZAAAgIgaDwR9HxEeyO1iU+x955JG3ZUcAQKsMAADwuFpK2ZodwaK8dffu3Z7lAAAnYAAAgEMO3QbwSHYHC/JgRPxcdgQAtKyfHQAArZiZmXl03bp1Z0bE12e3MD+llB8ZDAZ/mt0BAC1zAgAAjvZfI+IfsiOYl4/WWn81OwIAWucEAAB8iZmZmcfWr1+/JpwCGBm11h/csWPH32R3AEDrnAAAgCfo9/u/GBEPZ3cwJ39TSrkpOwIARoETAADwBB/60IceXbt27WmllIuyWzipg71e75Lt27d/KjsEAEaBEwAAcByllP8cETPZHZxYKeWntm3b9v7sDgAYFQYAADiOwWCwPyK+OyJqdgvHdVut9aezIwBglLgFAABOYGZm5u/Xrl377FLKy7NbOMqB4XD4xh07dtybHQIAo8QJAAA4iVWrVv1oRHw2u4MjSin/befOnR/I7gCAUWMAAICTuPHGGz9ba/2+7A4O+6P777//x7IjAGAUuQUAAE5hZmZmZv369WdGxKuzWybcR1etWvXNt95666PZIQAwipwAAIA5qLX+aES8M7tjgj0yHA4vf9vb3va57BAAGFUGAACYg8FgMBsR3xkR92W3TKJa6w/s3Lnzg9kdADDKDAAAMEeDweDeUspVEXEwu2WS1Fr/044dO/5XdgcAjDoDAADMw/bt2/84IjZFxGx2yySotb5lx44dP57dAQDjwEMAAWCeZmZm7ly/fv3HI+JNEVGye8ZVrfVXd+zY8a+zOwBgXDgBAAALsH379t8spfxIdscYe9v69eu/PyJqdggAjAsnAABggW6//fZ3r1u37pyIeFV2y5jZGRHf8Su/8iuetQAAS8gAAACLMDMz8/vr168/IyJend0yDmqtv7x+/fp/5ss/ACw99y0CwBLouu7NEXFdRKxKThlVw1LKD2/fvv2XskMAYFwZAABgiXRd983x+PH1s7NbRszeUsq3b9++fWd2CACMMwMAACyhruteExG3RMS52S0j4jO11m/fsWPHH2aHAMC4MwAAwBLbsGHD06empn4zIv5Jdkvjbj148OB33nzzzQ9mhwDAJDAAAMDyKF3X/WBE/Fx4LsAT7Y+IfzcYDH4pvOYPAFaMAQAAltGmTZu+sdb62xHxrOyWRtxTSvmO7du3vzs7BAAmjdcAAsAyuv322//uZS972W/VWs+LiJfF5I7v+yPiZyLiqsFgcE92DABMokn9EAIAK67ruq+MiF+KiNdmt6ywdwyHwx/YuXOnL/4AkMgAAAAraHp6uvehD33on5VSfjoizsvuWWafqrX+yI4dO64P9/oDQDoDAAAkuOyyy55y2mmnfV+t9Qci4pnZPUvs3lrrW84666y3bt26dW92DADwOAMAACSanp7uzczMvLHW+mMR8bXZPYv0kVrrTz71qU+98brrrjuQHQMAHM0AAABtKF3XfWtEfF9EvCEippJ75qpGxLtLKf/r4YcfvmH37t37soMAgOMzAABAY7que3Kt9U2llGsj4vXR5vX67lLK/6y1/vZgMLg3OwYAOLUWP1AAAId0XfeSUspVtdZvioiviYjTEnM+FhG/V2u9pZTyh4PBYDaxBQCYJwMAAIyIruvOiIhXllK+vtb62oj4uog4axn/Kx+IiD+ttf7RoS/8H17G/y4AYJkZAABgdJUrr7zyy4fD4fkRcX5EnF9rfdGh//+pEfGUiFhzkv/8bER87tD//X1EfLSUck9E3FZr/VtH+wFgvBgAAGCMbdmyZdUXv/jFY04JlFJmb7jhhn/IaAIAAAAAAAAAAAAAAAAAAAAAAAAAAAAAAAAAAAAAAAAAAAAAAAAAAAAAAAAAAAAAAAAAAAAAAAAAAAAAAAAAAAAAAAAAAAAAAAAAAAAAAAAAAAAAAAAAAAAAAAAAAAAAAAAAAAAAAAAAAAAAAAAAAAAAAAAAAAAAAAAAAAAAAAAAAAAAAAAAAAAAAAAAAAAAAAAAAAAAAAAAAAAAAAAAAAAAAAAA4P9vDw4JAAAAAAT9f+0JIwAAAAAAAAAAAAAAAAAAAAAAAAAAAAAAAAAAAAAAAAAAAAAAAAAAAAAAAAAAAAAAAAAAAAAAAAAAAAAAAAAAAAAAAAAAAAAAAAAAAAAAAAAAAAAAAAAAAAAAAAAAAAAAAAAAAAAAAAAAAAAAAAAAAAAAAAAAAAAAAAAAAAAAAAAAAAAAAAAAAAAAAAAAAAAAAAAAAAAAAAAAAAAAAAAAAAAAAAAAAAAAAAAAAAAAAAAAAAAAAAAAAAAAAAAAAAAAAAAAAAAAAAAAAAAAAAAAAGwC+H+H2YvsntoAAAAASUVORK5CYII=;" parent="jevpeknbrTmHfBJ1SfYR-1" vertex="1">
          <mxGeometry x="601.25" y="101.25" width="27.5" height="27.5" as="geometry" />
        </mxCell>
        <mxCell id="jevpeknbrTmHfBJ1SfYR-49" value="&lt;div&gt;banner&lt;/div&gt;" style="text;html=1;strokeColor=none;fillColor=none;align=center;verticalAlign=middle;whiteSpace=wrap;rounded=0;" parent="jevpeknbrTmHfBJ1SfYR-1" vertex="1">
          <mxGeometry x="370" y="95" width="60" height="30" as="geometry" />
        </mxCell>
        <mxCell id="jevpeknbrTmHfBJ1SfYR-66" value="" style="ellipse;whiteSpace=wrap;html=1;" parent="jevpeknbrTmHfBJ1SfYR-1" vertex="1">
          <mxGeometry x="363" y="560" width="2.5" as="geometry" />
        </mxCell>
        <mxCell id="CaUdoI8DClpX5DV_T0xl-0" value="" style="triangle;whiteSpace=wrap;html=1;" parent="jevpeknbrTmHfBJ1SfYR-1" vertex="1">
          <mxGeometry x="490" y="350" width="10" height="15" as="geometry" />
        </mxCell>
        <mxCell id="CaUdoI8DClpX5DV_T0xl-1" value="" style="triangle;whiteSpace=wrap;html=1;rotation=-180;" parent="jevpeknbrTmHfBJ1SfYR-1" vertex="1">
          <mxGeometry x="300" y="350" width="10" height="15" as="geometry" />
        </mxCell>
        <mxCell id="CaUdoI8DClpX5DV_T0xl-2" value="..." style="rounded=0;whiteSpace=wrap;html=1;" parent="jevpeknbrTmHfBJ1SfYR-1" vertex="1">
          <mxGeometry x="209.25" y="750" width="370" height="20" as="geometry" />
        </mxCell>
        <mxCell id="CaUdoI8DClpX5DV_T0xl-3" value="" style="triangle;whiteSpace=wrap;html=1;rotation=90;" parent="jevpeknbrTmHfBJ1SfYR-1" vertex="1">
          <mxGeometry x="564.25" y="672" width="10" height="15" as="geometry" />
        </mxCell>
        <mxCell id="CaUdoI8DClpX5DV_T0xl-5" value="Wifi" style="rounded=0;whiteSpace=wrap;html=1;" parent="jevpeknbrTmHfBJ1SfYR-1" vertex="1">
          <mxGeometry x="209.25" y="690" width="101" height="20" as="geometry" />
        </mxCell>
        <mxCell id="CaUdoI8DClpX5DV_T0xl-6" value="Heating system" style="rounded=0;whiteSpace=wrap;html=1;" parent="jevpeknbrTmHfBJ1SfYR-1" vertex="1">
          <mxGeometry x="209.25" y="710" width="101" height="20" as="geometry" />
        </mxCell>
        <mxCell id="znuz5rSKZTTlFxBseMHT-0" value="Available on" style="rounded=0;whiteSpace=wrap;html=1;" parent="jevpeknbrTmHfBJ1SfYR-1" vertex="1">
          <mxGeometry x="191.25" y="600" width="410" height="20" as="geometry" />
        </mxCell>
        <mxCell id="znuz5rSKZTTlFxBseMHT-4" value="&lt;font style=&quot;font-size: 10px;&quot;&gt;&lt;b&gt;?&lt;/b&gt;&lt;/font&gt;" style="ellipse;whiteSpace=wrap;html=1;aspect=fixed;" parent="jevpeknbrTmHfBJ1SfYR-1" vertex="1">
          <mxGeometry x="462.5" y="835" width="10" height="10" as="geometry" />
        </mxCell>
        <mxCell id="znuz5rSKZTTlFxBseMHT-5" value="This shows the lessees that are registered on the application. There might be unregistered lessees on this post, check the number of Total Lessees" style="shape=callout;whiteSpace=wrap;html=1;perimeter=calloutPerimeter;position2=0;size=15;position=0.29;fillColor=#fff2cc;strokeColor=#d6b656;" parent="jevpeknbrTmHfBJ1SfYR-1" vertex="1">
          <mxGeometry x="473" y="750" width="192.5" height="95" as="geometry" />
        </mxCell>
        <mxCell id="1a45jVT8oAiNAoQH7Nzl-0" value="" style="ellipse;whiteSpace=wrap;html=1;aspect=fixed;" parent="jevpeknbrTmHfBJ1SfYR-1" vertex="1">
          <mxGeometry x="520" y="100" width="30" height="30" as="geometry" />
        </mxCell>
        <mxCell id="1a45jVT8oAiNAoQH7Nzl-1" value="" style="html=1;verticalLabelPosition=bottom;align=center;labelBackgroundColor=#ffffff;verticalAlign=top;strokeWidth=2;strokeColor=#0080F0;shadow=0;dashed=0;shape=mxgraph.ios7.icons.shopping_cart;" parent="jevpeknbrTmHfBJ1SfYR-1" vertex="1">
          <mxGeometry x="525" y="107.25" width="20" height="15.5" as="geometry" />
        </mxCell>
        <mxCell id="lix78JDmxeVpIcx0UBYF-0" style="edgeStyle=orthogonalEdgeStyle;rounded=0;orthogonalLoop=1;jettySize=auto;html=1;exitX=0.5;exitY=1;exitDx=0;exitDy=0;" edge="1" parent="jevpeknbrTmHfBJ1SfYR-1">
          <mxGeometry relative="1" as="geometry">
            <mxPoint x="655" y="167" as="sourcePoint" />
            <mxPoint x="655" y="167" as="targetPoint" />
          </mxGeometry>
        </mxCell>
        <mxCell id="lix78JDmxeVpIcx0UBYF-1" value="" style="ellipse;whiteSpace=wrap;html=1;aspect=fixed;" vertex="1" parent="jevpeknbrTmHfBJ1SfYR-1">
          <mxGeometry x="640" y="170.5" width="39.5" height="39.5" as="geometry" />
        </mxCell>
        <mxCell id="lix78JDmxeVpIcx0UBYF-2" value="" style="ellipse;whiteSpace=wrap;html=1;aspect=fixed;" vertex="1" parent="jevpeknbrTmHfBJ1SfYR-1">
          <mxGeometry x="643" y="186.75" width="7" height="7" as="geometry" />
        </mxCell>
        <mxCell id="lix78JDmxeVpIcx0UBYF-3" value="" style="ellipse;whiteSpace=wrap;html=1;aspect=fixed;" vertex="1" parent="jevpeknbrTmHfBJ1SfYR-1">
          <mxGeometry x="656.25" y="186.75" width="7" height="7" as="geometry" />
        </mxCell>
        <mxCell id="lix78JDmxeVpIcx0UBYF-4" value="" style="ellipse;whiteSpace=wrap;html=1;aspect=fixed;" vertex="1" parent="jevpeknbrTmHfBJ1SfYR-1">
          <mxGeometry x="670" y="186.75" width="7" height="7" as="geometry" />
        </mxCell>
        <mxCell id="lix78JDmxeVpIcx0UBYF-5" value="Unlink" style="rounded=0;whiteSpace=wrap;html=1;" vertex="1" parent="jevpeknbrTmHfBJ1SfYR-1">
          <mxGeometry x="624.75" y="210" width="70" height="20" as="geometry" />
        </mxCell>
        <mxCell id="lix78JDmxeVpIcx0UBYF-6" value="Share" style="rounded=0;whiteSpace=wrap;html=1;" vertex="1" parent="jevpeknbrTmHfBJ1SfYR-1">
          <mxGeometry x="624.75" y="229.5" width="70" height="20" as="geometry" />
        </mxCell>
        <mxCell id="lix78JDmxeVpIcx0UBYF-7" value="Copy Link" style="rounded=0;whiteSpace=wrap;html=1;" vertex="1" parent="jevpeknbrTmHfBJ1SfYR-1">
          <mxGeometry x="624.75" y="249.5" width="70" height="20" as="geometry" />
        </mxCell>
        <mxCell id="lix78JDmxeVpIcx0UBYF-8" value="Check users that liked this post" style="rounded=1;whiteSpace=wrap;html=1;" vertex="1" parent="jevpeknbrTmHfBJ1SfYR-1">
          <mxGeometry x="579" y="997" width="101" height="65" as="geometry" />
        </mxCell>
        <mxCell id="lix78JDmxeVpIcx0UBYF-9" value="You are linked to this post" style="rounded=1;whiteSpace=wrap;html=1;" vertex="1" parent="jevpeknbrTmHfBJ1SfYR-1">
          <mxGeometry x="359" y="150" width="110" height="50" as="geometry" />
        </mxCell>
        <mxCell id="lix78JDmxeVpIcx0UBYF-10" value="" style="rounded=0;whiteSpace=wrap;html=1;fillColor=#dae8fc;strokeColor=#6c8ebf;opacity=50;" vertex="1" parent="jevpeknbrTmHfBJ1SfYR-1">
          <mxGeometry x="92" y="90" width="620" height="1070" as="geometry" />
        </mxCell>
        <mxCell id="lix78JDmxeVpIcx0UBYF-11" value="" style="rounded=0;whiteSpace=wrap;html=1;" vertex="1" parent="jevpeknbrTmHfBJ1SfYR-1">
          <mxGeometry x="243" y="320" width="320" height="280" as="geometry" />
        </mxCell>
        <mxCell id="lix78JDmxeVpIcx0UBYF-12" value="Do you wish to be unlinked from this post?" style="text;html=1;strokeColor=none;fillColor=none;align=center;verticalAlign=middle;whiteSpace=wrap;rounded=0;" vertex="1" parent="jevpeknbrTmHfBJ1SfYR-1">
          <mxGeometry x="310" y="350" width="190" height="50" as="geometry" />
        </mxCell>
        <mxCell id="lix78JDmxeVpIcx0UBYF-13" value="Yes" style="rounded=1;whiteSpace=wrap;html=1;fillColor=#d5e8d4;strokeColor=#82b366;" vertex="1" parent="jevpeknbrTmHfBJ1SfYR-1">
          <mxGeometry x="430" y="480" width="106" height="50" as="geometry" />
        </mxCell>
        <mxCell id="lix78JDmxeVpIcx0UBYF-14" value="No" style="rounded=1;whiteSpace=wrap;html=1;fillColor=#f8cecc;strokeColor=#b85450;" vertex="1" parent="jevpeknbrTmHfBJ1SfYR-1">
          <mxGeometry x="271" y="480" width="106" height="50" as="geometry" />
        </mxCell>
      </root>
    </mxGraphModel>
  </diagram>
</mxfile>
